<svg xmlns="http://www.w3.org/2000/svg" width="180.063" height="17.375" viewBox="0 0 180.063 17.375">
  <defs>
    <style>
      .cls-1 {
        fill: #fff;
        fill-rule: evenodd;
      }
    </style>
  </defs>
  <path id="SteakShop_copy" data-name="SteakShop copy" class="cls-1" d="M606,52.789l-0.36-1.392-0.264-.384-0.624-.72-0.432-.384-0.384-.192-0.432-.264-1.873-.576-0.48-.072-0.48-.024-0.5-.1h-0.7l-1.272-.264-0.888-.432-0.36-.336-0.1-.72,0.12-.648,0.288-.312,0.36-.264,0.384-.216,0.432-.1,0.768-.024,0.768,0.1,0.432,0.12,0.432,0.288,0.408,0.336,0.36,0.48L602.134,47l1.128-.1,0.648,0.048h0.48L604.822,47l0.456-.336,0.192-.408-0.1-.456-0.048-.456L604.654,44.1l-0.528-.72-1.584-1.1L601.2,41.82l-0.936-.192-1.848-.048-0.528.144-0.48.024-0.432.072-0.912.288-0.816.48-1.152.792-0.84,1.128-0.432,1.32L592.749,47l0.024,0.744,0.168,0.96,0.384,0.84,0.888,1.1,1.632,0.888,0.864,0.288,3.768,0.432,0.864,0.408,0.312,0.288,0.144,0.6-0.192.6-0.312.36-0.816.36-0.744.048L599.3,55l-1.224-.12-0.408-.216-0.408-.264-0.792-.864-0.48-.192-0.432.048-0.456-.072-1.848.1-0.432.192-0.192.5,0.072,0.48,0.1,0.48,0.144,0.432L593.4,56.39l0.336,0.312,0.312,0.36,0.84,0.528,0.336,0.36,0.456,0.216,0.48,0.144,0.936,0.336,0.984,0.168,1.9,0.048,0.48-.048,0.48-.12,0.48-.072,0.48-.192,0.433-.048,0.456-.216,1.632-.984,0.7-.72,0.24-.336,0.264-.528,0.144-.432,0.144-.408,0.144-1.2Zm-7.945-10.681-0.048.216,0.072,0.264-0.072.144-0.024-.12-0.12-.312Zm1.56,0.168,0.144,0.048,0.048-.048,0.072-.144h0.1v0.12l-0.24.144-0.144.024-0.072-.1Zm-1.176-.12,0.168,0.12,0.288,0.12h0.168V42.54h0.216l-0.072.048-0.288.024-0.264-.048-0.024-.12-0.192-.072V42.156Zm-1.656.264,0.072-.1h0.24l0.144,0.072-0.168.144-0.216-.1-0.144.24,0.144,0.24-0.24-.024-0.048-.24Zm4.368,0.048,0.048,0.144-0.12-.024-0.024-.144Zm-4.92.1,0.1-.024v0.144h-0.12Zm3.816,0.024,0.216,0.024-0.12.12L600,42.78Zm1.416,0.1,0.1-.024,0.192,0.12,0.144,0.192-0.192-.1h-0.288ZM594.6,43.6l0.36-.144,0.432,0.024,0.024-.1-0.288-.192,0.1-.24,0.432-.048,0.216,0.144,0.24,0.024-0.072.144-0.144.048,0.1,0.216,0.264-.048-0.288.216-0.5.072-0.432.024-0.072.312-0.264.144-0.072-.264-0.1-.216Zm7.753-.552L602.422,43v0.1l-0.072.024V43.044Zm-6.481.192v-0.12h-0.384l0.1,0.168Zm7.273,12.7-0.792.576-0.433.168-1.416.456-0.5.048-1.872-.024-0.864-.216-0.936-.408-0.384-.24-0.6-.528-0.264-.432-0.1-.36h0.312l0.36,0.384,0.36,0.312,0.768,0.528,0.432,0.12,0.456,0.216,1.632,0.144,0.792-.024,1.392-.36,0.5-.24,0.84-.5,0.288-.48,0.264-.336,0.168-.456,0.072-.768-0.024-.7-0.168-.456-0.5-.672-0.84-.552-0.385-.192-1.44-.264h-0.432l-1.68-.168L597,50.269l-1.248-.624-0.384-.336L595.053,49l-0.192-.36-0.192-.5-0.12-1.2V46.309l0.576-1.392,0.84-.744,1.488-.792,0.936-.144,1.416-.048,0.96,0.192,0.408,0.216,0.913,0.36,0.384,0.336,0.36,0.24,0.288,0.408,0.1,0.408-0.36.048-0.768-.768-0.385-.264-0.5-.24-1.32-.408-1.944.12-0.5.144-1.248.672-0.672.672-0.24.408-0.192.48,0.024,1.536,0.12,0.432,0.528,0.768,0.36,0.288,0.5,0.216,0.864,0.312,0.528,0.1,0.432,0.12,2.448,0.288,1.465,0.36,0.432,0.264,0.7,0.648,0.288,0.312,0.336,0.888,0.024,1.512-0.36.864-0.312.48Zm-9.121-11.209,0.168-.312,0.1-.24,0.36,0.1,0.288,0.264-0.12.312-0.432.336-0.216.072,0.048,0.312-0.264.048,0.048-.12-0.024-.36,0.288-.192-0.192-.1-0.264.216-0.1-.144Zm-0.168-.48,0.1-.024,0.024,0.12-0.144.024Zm6.5,0.384h-0.144l-0.1-.024-0.048-.168,0.12,0.072,0.168,0.024v0.1Zm-2.832.384-0.216-.168h-0.12l0.144-.144,0.264,0.12Zm3.12,0.024h-0.12l-0.024-.144,0.144,0.024v0.12Zm0.36,0V44.893h0.1l0.024,0.144h-0.12Zm-4.056.264-0.216-.192,0.072-.12,0.144,0.144V45.3Zm-0.792.624-0.048-.024-0.1.024,0.024-.192,0.144-.24,0.168,0.048-0.144.072-0.144.12Zm-2.88.336-0.024-.1,0.072,0.024,0.12-.048L593.661,46l0.024-.168h0.168l-0.024.144-0.144.072-0.12.24Zm3.192,0.192,0.048,0.12-0.336.12h-0.312l-0.24-.144,0.36-.1h0.48Zm-3,.336,0.24-.072,0.1-.192,0.144,0.1-0.048.144h-0.192l-0.024.216-0.072.216-0.072-.048h0.072l-0.1-.144-0.168-.12Zm2.424,0.288,0.024-.192,0.36-.072,0.12,0.24,0.12,0.168-0.048.144-0.168.072,0.048,0.1,0.048,0.048-0.1-.048-0.048-.1,0.1-.168-0.144-.048Zm0.24,0.048,0.024-.144-0.192.048Zm-2.448.384-0.12-.072,0.1-.12,0.168-.12,0.192,0.12-0.144.24Zm2.088-.192h0.168l-0.1.168-0.216-.024Zm0.264,0.312,0.144,0.048-0.024.12-0.144-.048Zm-2.448.24h-0.168l0.072-.144h0.168Zm2.688,0.264h-0.216v-0.12l0.1-.1,0.168,0.192,0.264,0.1,0.12,0.192-0.1.168-0.24-.1-0.192-.144,0.144-.048Zm-2.232.12,0.048,0.048-0.024.072-0.048-.024Zm2.976,0.408,0.168,0.24,0.12,0.264,0.12,0.168-0.12-.144-0.216-.24-0.1-.216-0.216.1-0.12-.1,0.1-.1Zm0.96,0.12,0.12,0.144,0.144,0.288h-0.12l-0.144-.024V49.117l-0.048-.168Zm-3.7.72-0.048-.12-0.1-.1-0.072-.144L594.141,49l0.264-.12,0.144,0.216-0.24.168-0.048.12,0.072,0.024,0.024,0.048Zm4.176-.552,0.288,0.144-0.024.144-0.144-.1,0.024-.048h-0.168Zm-3.84.792h-0.144v-0.12h0.144v0.12Zm0.408,0.432-0.1-.024,0.024-.12,0.12,0.048Zm0.216,0.312V50.341l0.192-.048,0.024,0.144Zm1.776,0.5-0.216.024-0.072.048,0.192,0.144L597,51.3l-0.264-.024-0.216-.168-0.072-.24,0.192-.024,0.024,0.168,0.144-.048,0.192-.1,0.12,0.072Zm1.776,0.144-0.1.048v-0.12l0.1,0.024v0.048Zm5.521,0.144h0.072l-0.024.072H604.2Zm-5.545.24h-0.12l0.024-.12h0.1v0.12Zm0.744,0.048V51.4l0.1,0.024,0.048,0.12Zm0.888,0-0.072-.1,0.072-.024,0.12,0.144Zm2.089,0.912-0.072-.024-0.12-.048v-0.12l0.168-.024-0.048.072Zm2.448,0.312,0.168,0.072h0.168l-0.1.024-0.072-.024-0.144.072-0.12-.024Zm0.5,0.816-0.168-.024,0.024-.12,0.168,0.024Zm-0.216.264,0.1,0.12v0.048l-0.168-.024-0.072-.168Zm-9.5.192,0.192,0.12,0.024,0.216-0.216-.1v-0.24Zm9.169,0.216,0.072-.12,0.192,0.072-0.12.1-0.144-.024h-0.1Zm0.48,0.144-0.072.024v-0.12h0.072v0.1Zm-9.193.12-0.048.048-0.072.048Zm8.449,0.12,0.144-.048v0.216H604.63V54.661Zm0.5,0.6-0.168.264-0.144.312-0.12.12-0.024-.12-0.024-.072-0.216.048-0.144-.144-0.024-.336h0.216v0.216l0.168,0.072,0.12-.264,0.048-.288L605.014,55l0.216,0.144Zm-4.3-.1h0.192l-0.072.144-0.168.024Zm-0.528.312h0.12l0.072,0.144,0.072,0.048v0.072l-0.048-.072-0.072-.072-0.1.072-0.12-.048Zm-0.384.072,0.024,0.216h-0.12l-0.024-.144Zm-0.408.048v0.1h-0.1l-0.024-.072Zm4.393,0.216-0.024.12-0.12-.024,0.048-.1h0.1Zm-5.833.12,0.12-.072,0.048,0.1-0.072.12-0.12.048-0.072-.024h0.12Zm0.72-.024h0.1v0.12l-0.12-.024Zm5.5,0.672h-0.336l-0.312-.168,0.288-.192,0.36,0.12v0.24Zm-0.456.384-0.168.048,0.072-.216,0.264,0.072Zm-0.72.072-0.144.048,0.048-.192h0.12Zm-0.576.12,0.048-.072,0.216-.024-0.072.12Zm0.216,0.384-0.12-.1-0.168-.1-0.168.144-0.072.168L602.4,57.71l0.072,0.048-0.12.024-0.12-.072-0.361.1-0.336.12-0.288.168-0.1-.024-0.192-.024,0.048-.12,0.048-.1-0.12-.168,0.384,0.024,0.552-.024,0.241-.168-0.024-.144-0.048-.1,0.1,0.048,0.144,0.048h0.192l0.192,0.048h0.144l0.072,0.12Zm-3.769.264,0.024-.072,0.1-.048,0.024,0.1Zm1.344,0.336h-0.216l0.1-.336,0.168,0.048ZM599.8,58.07l-0.072-.168,0.144-.024,0.048,0.192H599.8Zm-2.16.072-0.1-.024h0.1l0.144-.048Zm0.96,0.168,0.024-.192,0.048,0.024,0.048,0.168h-0.12Zm0.888,0.12-0.12-.024-0.048-.1,0.168-.024V58.43Zm24.625-15.961-0.24-.48-0.48-.24-0.576.048-0.384-.048h-0.456l-0.529.072h-0.48l-0.48-.048h-0.48l-0.552.072-7.152-.048-0.528.24-0.24.48-0.024,2.4,0.264,0.528,0.48,0.24,0.624-.072,2.136,0.024,0.432,0.264,0.24,0.456L615.765,49l-0.072.744,0.048,0.456-0.048.48v0.96l0.072,0.7-0.1.72,0.024,0.48-0.024.5,0.072,1.464-0.048.48,0.024,1.872,0.192,0.5,0.5,0.24,0.456-.048,0.48,0.048,0.456-.048h1.488l0.48-.192,0.192-.48-0.024-.456,0.048-.552-0.024-.96-0.072-.408,0.072-.5,0.048-1.464-0.048-.432,0.072-1.008-0.1-4.776,0.072-.48-0.048-.528,0.192-.432,0.528-.216,0.408-.024,0.481,0.024,0.432-.048,1.32,0.024,0.552-.216,0.24-.48-0.048-.5Zm-10.753-.408h0.072l0.216-.048,0.36,0.144,0.24,0.312,0.216,0.024-0.1-.072,0.1-.12,0.1-.072,0.144,0.048h0.048V42.3l0.12,0.048,0.168,0.312-0.216.408-0.408.1-0.168-.1-0.12.048-0.336-.024-0.12-.264-0.264-.144,0.072-.432-0.048-.192-0.072.024h-0.1Zm-1.392.408,0.144-.144,0.24-.168,0.36-.072,0.312,0.048,0.264,0.264-0.12.144v0.12l0.12,0.12,0.048,0.1-0.048.072L613.149,43l-0.048.1-0.048-.072-0.12.1-0.144-.024,0.144,0.216,0.024,0.192-0.24.048-0.072.12,0.072,0.072-0.024.12-0.1-.24h-0.12l-0.1.072-0.24-.048L612,43.428l-0.12.024-0.024-.384Zm3.24-.168,0.12-.144,0.168,0.216,0.048,0.168,0.1-.072V42.3l0.072-.1-0.048.1,0.168,0.072,0.12,0.168,0.216-.1v0.144l-0.072.192-0.072.048-0.168-.072,0.024,0.216,0.144,0.072,0.144,0.1-0.192.024L615.789,43h-0.144l-0.12.024-0.216-.048-0.144-.264,0.072,0.072V42.564Zm5.52-.144,0.048,0.1-0.1.216,0.24-.024,0.048-.192,0.072,0.12-0.024.216-0.24.072-0.12.1-0.1-.048-0.168.048-0.048-.216Zm-2.208.6,0.144,0.192-0.024-.264,0.288-.1,0.12,0.216,0.168,0.024-0.072-.24-0.24-.216-0.192-.024,0.1-.024,0.144-.144,0.336,0.264,0.072,0.264,0.024,0.1,0.048,0.144h-0.192l-0.24-.12-0.24-.024-0.048.288-0.192-.048-0.168-.24Zm2.808-.48,0.12-.048,0.072-.048-0.12.144-0.1.048Zm0.985-.1,0.048,0.1-0.216.072-0.1.048,0.048-.12Zm-2.833.12,0.144-.1,0.36,0.048-0.144.12-0.12.1,0.168,0.1,0.12,0.048,0.1-.1,0.144,0.024-0.072.072-0.12.216-0.1.168-0.168-.072-0.168-.192-0.024-.168-0.1-.192-0.12.048Zm-4.968.168-0.168.192,0.072,0.192,0.192-.12,0.144,0.024,0.144-.168-0.24.048,0.048-.168,0.072-.024-0.024-.144h-0.024l-0.024-.024-0.1.024Zm-2.424.168,0.144-.024,0.048-.24-0.168-.048v0.1Zm5.616-.312,0.072,0.12v0.024l-0.1-.024-0.072-.12h0.1Zm0.24,0.072,0.192-.048,0.048,0.264-0.24-.048V42.4Zm-1.1.168,0.288-.12,0.048,0.12-0.144-.048-0.12.12,0.24,0.12L617.3,43.02v0.024l-0.12-.072L616.917,43l-0.1-.168Zm6.241,0.144,0.144,0.024,0.024,0.12,0.072-.024,0.12-.168-0.048-.1-0.1-.1h0.144l0.072,0.24-0.168.144V43l0.1,0.144-0.168-.1-0.12-.192-0.12-.048Zm-1.056-.216,0.024,0.216-0.1-.048Zm-5.665.168,0.192-.024,0.048-.1,0.1,0.12-0.24.144-0.12.12L616.509,43l0.1-.024-0.072.048-0.12.048,0.048-.048-0.12-.1Zm-0.672.144-0.144-.192-0.1.12,0.168,0.216Zm-1.728-.1h0.144l-0.24-.072L613.7,42.8l0.12,0.048Zm-0.96.144-0.1-.144V42.9l0.048,0.12Zm8.256-.144,0.048,0.216-0.12-.072-0.1-.12Zm-3.432.264,0.048-.144,0.168,0.12-0.1.168-0.12-.024v-0.12Zm4.681-.024,0.072,0.12-0.1.072-0.024-.12Zm0.384,0.168-0.024.12-0.144.1-0.024-.144h0.144l-0.024-.144,0.024-.072,0.1,0.072Zm0.36,0.48-0.216-.192-0.048-.12,0.168-.048,0.12,0.192,0.144,0.072ZM621.838,44l-3.049-.048-0.48.24-0.192.5v1.464l-0.072.5,0.048,0.432v1.536l-0.072.432,0.072,0.5,0.024,1.464-0.048.48,0.048,0.5-0.048.48,0.048,1.464-0.048.5,0.048,1.68-0.12.744-0.288-.024-0.12-.408-0.024-.576,0.048-.48-0.048-.48,0.024-.456-0.072-.528,0.048-.5L617.517,52l0.048-.456-0.024-.552,0.072-.912-0.1-1.008,0.072-.456-0.048-.5,0.1-.5-0.072-.48,0.048-.96-0.048-.984-0.072-.456-0.168-.48-0.456-.288-2.88.048-0.768-.192,0.024-.24,0.48-.1,2.4-.048,0.48,0.048,4.8-.048,0.457,0.048,0.48,0.144,0.072,0.216Zm1.848-.5,0.072,0.1-0.168-.072Zm-10.2,1.776,0.1-.048,0.1,0.024-0.024.072-0.144-.024-0.24-.192-0.36.024-0.288-.072,0.072-.144,0.048-.24L612.6,44.6l-0.072-.048-0.168-.144-0.192.072,0.1,0.048,0.048,0.192-0.288.072-0.168-.168,0.1-.144-0.048-.12-0.12-.144,0.1-.144,0.048-.1-0.048-.12,0.1-.12,0.264,0.168,0.12,0.048L612.285,44l0.168-.024,0.192,0.168,0.144,0.192,0.24,0.024,0.144,0.384,0.168,0.048,0.144,0.1,0.12-.048v-0.1h0.144l-0.144.168,0.168,0.1-0.336.192Zm10.2-1.08-0.048-.1,0.048,0.048,0.1-.024Zm-11.5.12-0.048-.144-0.24-.024-0.024.1,0.024,0.12,0.168-.024Zm3.432,0.192,0.168-.168,0.168,0.192-0.192.1Zm-3.048,0,0.048,0.048,0.048-.12-0.1-.072v0.144Zm4.512,4.825-0.288.12-0.144.12,0.048,0.168-0.216.12-0.24.048,0.168,0.216,0.384,0.1,0.24,0.168-0.048.264-0.216.264-0.12.072-0.024-.312-0.24.072,0.048-.168-0.072-.24-0.216.24,0.024-.1,0.024-.264-0.024-.336,0.12-.144,0.1-.072-0.072-.1-0.1.072-0.072.048,0.072-.1,0.1-.336-0.168-.216v0.144l-0.072.1-0.024-.168,0.072-.192,0.1-.168V48.589l-0.192-.192,0.168-.144,0.072,0.168-0.12.072,0.12,0.048,0.12-.024,0.1-.168h0.144l0.024,0.1,0.024-.216,0.024-.168-0.144.048-0.144-.072,0.168-.192-0.168-.12-0.168-.144-0.1.24,0.1,0.192,0.024,0.12-0.168-.072,0.048-.192-0.168-.216,0.216-.312-0.072-.144-0.024-.12,0.024-.168,0.144-.12,0.144-.072,0.072-.144,0.192-.144-0.192-.24-0.072.1-0.168.144-0.072.072V46.357l0.12-.168,0.024-.144-0.1.024-0.144.12-0.12.024-0.072-.144-0.144-.1-0.072-.12,0.072-.048v0.12l0.24-.072-0.264-.336-0.048-.24-0.048.1-0.12.048h-0.1l-0.24-.072-0.048-.168-0.1-.048-0.144.072-0.072.1-0.24-.12-0.288-.048-0.288-.24,0.048-.312,0.264,0.168,0.216-.216,0.144,0.144,0.168-.072,0.144-.1,0.1,0.144-0.024.216,0.192-.192,0.12-.216,0.192,0.1-0.048.288,0.384,0.264,0.264,0.216,0.1,0.216,0.072,0.072,0.072-.048-0.024-.144-0.12-.216-0.216-.192,0.072-.144,0.216,0.1v-0.24l0.072-.048H616.2l-0.072-.264h0.144l0.216,0.048v0.12l0.072,0.144,0.264,0.1,0.072,0.144,0.12-.168,0.072-.168-0.024.192-0.168.144-0.1.12,0.216,0.336,0.072,0.216,0.12,0.144-0.048.048-0.12-.1-0.168-.264L616.8,45.3v0.288l-0.072.144-0.12.072-0.072.144,0.312-.024L617.157,46l-0.024.288-0.048.144h-0.072l-0.048-.216-0.192-.12,0.072,0.216,0.312,0.312-0.072.216-0.048.12v0.408l-0.168.072-0.216.168,0.168,0.192,0.12,0.192,0.1-.024,0.12,0.12v0.24l-0.072.192-0.12-.192,0.072-.216-0.12-.072-0.1.216,0.168,0.36,0.216,0.312-0.168.24,0.216,0.168h-0.168Zm4.056-4.656-0.168-.048L621,44.412l0.144,0.072v0.192Zm-0.48-.048-0.12.1,0.048,0.168-0.192.144-0.192.192-0.288-.1-0.168-.168-0.12.072,0.168,0.216,0.24,0.072,0.144,0.048v0.144l-0.216.1H619.8l0.072,0.1-0.048.1-0.168.072-0.048.216v0.168l0.1,0.024-0.12.216-0.12.264,0.1,0.024-0.072.168-0.216-.1-0.1.048-0.216.192-0.264.072,0.024,0.192,0.1,0.048-0.072.1-0.048-.1-0.168.048-0.12.048,0.024-.288,0.216-.264-0.24-.336,0.072-.36,0.1,0.024,0.168-.144L618.621,46l-0.12-.6,0.216-.432h0.12l-0.048-.192,0.144-.216,0.216,0.024,0.072-.144,0.264,0.024,0.1,0.336,0.072,0.072,0.192-.024,0.264,0.072,0.24-.024,0.192-.216,0.072-.168h0.168Zm-0.84-.168,0.168-.024-0.1.168Zm1.969,0.672-0.144.024-0.169-.168V44.7l-0.144-.024,0.024,0.12-0.1-.144,0.024-.1,0.048-.12,0.241,0.168,0.144,0.264,0.192,0.144Zm-1.633-.648,0.168,0.048v0.144l-0.144-.1Zm2.137,0.336-0.144.264-0.072.048-0.072-.264L622.2,44.7l0.048-.192,0.192,0.024,0.144,0.072h-0.144Zm1.272-.192-0.048.12-0.1-.024,0.048-.144,0.12,0.024,0.048,0.1Zm-0.984.192-0.072.072V44.8l0.12-.168Zm-3.409.1L619.1,44.8l-0.1.072-0.1.12h0.12Zm1.68,0.24-0.144-.216,0.264,0.024,0.168,0.216Zm-5.352-.072-0.216-.048-0.168.144,0.216-.072Zm-3.12.12h-0.1l-0.048-.144,0.192,0.024Zm7.128,0.24-0.024-.072,0.072-.168-0.168-.144-0.024.36,0.264,0.192,0.024-.288h-0.144v0.12Zm-0.192.36-0.312.12-0.048.168,0.408,0.24,0.1,0.12-0.048-.36Zm-0.7.7,0.216,0.024V46.381l-0.144-.024Zm-1.656.36,0.024-.144-0.12-.072-0.192.168,0.072,0.168Zm2.184,0.336,0.024-.12h0.216l0.024,0.168-0.168.1Zm-2.544-.024-0.216.12,0.168,0.12,0.192-.12Zm3.024,1.08-0.12-.024-0.024.1-0.12-.1v-0.1l-0.192.048-0.048-.1,0.072-.048,0.072,0.1,0.072-.048,0.048-.072-0.12-.192-0.072-.192-0.12-.144,0.168,0.048h0.192l0.1-.072,0.072-.072v0.144l-0.1.144,0.048,0.36,0.144,0.12h-0.1Zm-2.592-.648-0.1.072-0.1-.1,0.072-.024Zm1.536,0.312-0.12.1V47.989l0.048-.144-0.072-.168,0.192,0.024Zm-0.144.24,0.024-.12,0.168,0.048,0.192-.168,0.12-.192v0.168l-0.144.312v0.288l-0.144-.024-0.1-.24-0.192.024Zm1.008,0.528-0.264.144-0.12-.216,0.024-.216,0.12,0.024,0.144,0.144,0.264,0.072Zm-2.88.072,0.216-.312h-0.24Zm3,1.632-0.024.12-0.1-.1,0.048-.1,0.072-.12-0.144-.12-0.024-.336-0.024-.168-0.1.072-0.12.048,0.144,0.192-0.216.264-0.168-.048,0.12,0.216-0.192.216,0.192,0.1,0.216-.168,0.192,0.168-0.216.12-0.024.36-0.12.12,0.1,0.1,0.168,0.12,0.024-.1-0.072-.192,0.1-.072,0.12,0.264-0.144.144-0.216-.072-0.12-.192V50.917l-0.072-.288-0.12.144-0.24.072-0.072-.072-0.1-.12,0.1-.048,0.1,0.024,0.12-.072V50.365l-0.192-.192V49.885l0.12,0.024,0.072,0.072v0.168h0.1l0.072-.24-0.072-.168-0.12-.12-0.072-.24-0.1-.216,0.12-.144,0.168-.336,0.024-.072,0.072,0.1,0.048,0.408,0.144,0.384,0.144-.072,0.168,0.072,0.072,0.312,0.12,0.384Zm-0.144-1.608,0.1,0.144-0.072.264-0.12-.048,0.072-.072,0.048-.1Zm-2.736.264,0.048,0.1,0.12,0.024,0.1-.1-0.1-.072Zm-0.1.48,0.144-.1-0.144-.12v0.216Zm2.256-.024,0.072,0.168,0.048,0.072,0.048-.1,0.072-.1-0.12-.12Zm-2.544,1.368,0.1-.1v0.12Zm2.424,0.144,0.12,0.024,0.048,0.048-0.12.024Zm-1.632.744-0.168.1v-0.24l-0.24.072-0.1.264h-0.192l0.1-.192,0.12-.072-0.192-.072-0.216-.048,0.048-.072,0.168,0.048,0.12-.024-0.048-.12,0.072,0.1,0.1,0.1-0.048-.216V51.157l0.1,0.024,0.264,0.264,0.216,0.144Zm1.632-.216,0.048,0.12,0.12-.048-0.144.072-0.072-.12-0.048-.072,0.1-.072-0.048.072Zm0.528,0.312,0.1-.168,0.12,0.12,0.024,0.168-0.12-.12h-0.1l0.048,0.1h-0.144l-0.1-.144-0.024-.1,0.072-.1v0.144Zm0.336,1.056-0.216.1-0.12-.168-0.072.168-0.216.048-0.144-.1-0.048-.12,0.144,0.048,0.072,0.048-0.048-.216,0.048-.1-0.36-.024-0.072-.456,0.144-.1-0.048.216,0.24,0.1,0.264-.1,0.072,0.048-0.1.168,0.168,0.048,0.336,0.144Zm-0.144-.624-0.12-.024,0.048-.048Zm-3.192.456,0.192-.1,0.048,0.072-0.12.024h-0.12Zm0.6,0.768-0.12-.12V53.173l0.192,0.12Zm1.848,0.168-0.1-.192-0.1.024,0.216-.1,0.048,0.072,0.072,0.072,0.024,0.12h-0.168Zm0.456-.048V53.413l0.1,0.1Zm-2.568.048,0.144,0.024,0.048,0.12h-0.12Zm2.9,0.5-0.072-.192,0.144-.072,0.048,0.072,0.024,0.168Zm-0.72,0,0.12-.048,0.072,0.24-0.192.168,0.072-.144Zm-1.92.288-0.072-.144,0.12-.048,0.024,0.144Zm2.5,0.12,0.072-.168,0.048,0.12Zm-0.168-.072,0.024,0.216-0.168-.048,0.048-.168h0.1Zm-2.472.288-0.024-.168,0.072,0.048,0.1,0.12H616.7Zm2.9,0.12-0.12.048-0.192.072-0.144-.072,0.144-.192,0.216,0.072h0.1v0.072Zm-1.1.408,0.1-.1-0.1-.168,0.1,0.1,0.072-.1,0.12-.1,0.048,0.072-0.1.024-0.12.168Zm0.888,0.48-0.12.1,0.1,0.288-0.168.216-0.072.1-0.1.024,0.072-.1V56.2l-0.312.144,0.12-.312,0.312-.12,0.1-.1-0.192-.1,0.024-.144h0.12l0.168-.024,0.12,0.216Zm-3.12.024,0.024-.1h0.12v0.1l-0.1.048,0.1,0.1v0.144l-0.048-.048-0.072-.168Zm2.256,0.7-0.12-.144,0.144-.12Zm-1.968.456-0.144-.072v-0.1l0.144,0.072v0.1Zm2.76,0.1-0.048-.168,0.12-.024,0.024,0.168Zm-1.584.5h-0.168l-0.048.072-0.144-.192,0.168-.12,0.1,0.072,0.144,0.072Zm0.528,0.5-0.024-.144-0.144-.12,0.1-.12,0.024-.144,0.1-.1,0.024,0.192-0.1.144,0.024,0.12,0.12,0.12Zm0.576-.264-0.12-.144,0.144-.048Zm22.777-2.3-0.312-.48-0.721-.24-3.168-.048-0.456.072-0.528-.048-0.528.048-0.5-.288-0.216-.744,0.024-1.176,0.216-.5,0.432-.264h0.936l0.48-.048,1.272,0.072,0.648-.048,0.5,0.048,0.432-.024,0.48-.264,0.241-.456,0.048-1.9-0.048-.48-0.217-.456-0.408-.264-0.96-.024-0.48.048h-0.5l-0.552-.048-1.9.024-0.408-.264-0.288-.432-0.048-.744,0.24-.7,0.744-.216,4.608-.024,0.5-.264,0.264-.432L641.4,43.98l-0.072-.456L641.35,43l0.072-.456-0.24-.48-0.5-.216-1.92-.024-0.432.048-0.48-.072-1.056.048-0.48-.048-0.936.024-0.432-.048-3.144.072-0.7.168-0.24.528,0.048,0.96-0.1.7,0.1,1.224-0.048.5,0.048,0.432v4.3l-0.072.5,0.072,0.936-0.048.96,0.072,0.5-0.048.528,0.024,0.456-0.072.432,0.048,0.552v0.48l0.048,0.936-0.024.48-0.1.48,0.312,0.456,0.456,0.264,5.424-.048,0.432,0.072,1.464-.072,1.464,0.1,0.457-.048,0.5-.24,0.216-.456,0.048-.456-0.024-1.488Zm-6.937-13.369,0.216-.048,0.144,0.072,0.072-.048-0.048.072-0.192-.024-0.12.024-0.12.048Zm3.528,0.072,0.072,0.072-0.024.1-0.048-.048v-0.12Zm-5.04.1h0.1v0.144h-0.1V42.324Zm-1.128.024,0.1,0.1h-0.12l-0.072.048-0.072.072-0.024-.1Zm2.976,0.288-0.024.1-0.072-.024,0.024-.072h0.072Zm-2.76.216h-0.12V42.78l0.072-.048Zm7.7-.048v0.144l-0.048-.048-0.024-.1h0.072Zm-7.8.864-0.12-.048h-0.12l0.072-.024-0.072-.1-0.024-.144h0.192l0.192,0.168Zm2.784,13.3-0.48.048-0.96-.048L633,56.7l-0.24-.456V55.333l0.048-.5V51.445l-0.072-.5,0.072-.48-0.072-.96,0.072-.456-0.048-.528,0.048-2.424-0.072-.432,0.048-.528-0.072-.5,0.048-.456,0.216-.456,0.432-.312h1.92l0.5,0.072,2.208-.072,0.864,0.048,0.7,0.12,0.048,0.24L639.213,44l-4.32.024-0.48-.048h-0.48l-0.432.264-0.24.432,0.024,1.92-0.048.432,0.048,0.48-0.048.456,0.1,0.528-0.024.48,0.168,0.48,0.456,0.192,4.752,0.024,0.528,0.1-0.072.288-0.408.168-3.864-.024-0.408-.048-0.5.048-0.48.24-0.192.456v0.5l-0.048.48,0.024,0.456,0.072,0.456-0.072.528,0.072,0.48-0.048.528v0.432l-0.048.456,0.024,0.48,0.24,0.5,0.528,0.24,1.488,0.048,0.384-.048,0.576,0.024,0.432-.024,0.5,0.072,0.5-.048,0.456,0.024,0.5-.048,0.5,0.048,0.5,0.1,0.024,0.24-0.5.168Zm5.9-13.153,0.072,0.072-0.024.1-0.1-.048Zm-4.177.528-0.048-.048,0.072,0.048,0.072,0.072Zm-1.92.168-0.144-.024,0.072-.12h0.144Zm-2.544.048-0.12.048V44.46Zm1.68,0.216,0.168-.144h0.1l-0.024.1-0.144.048h-0.1Zm-2.16.024,0.024-.048,0.024,0.072-0.048.072V44.8Zm0.168,0.12h0.24l0.192,0.024-0.144.072-0.336.072-0.1-.192Zm2.016,0.216-0.168-.192,0.216,0.072,0.216,0.1-0.024.144Zm1.152-.024-0.12-.1,0.12-.072,0.168,0.072Zm0.1,0.144,0.1-.048,0.048,0.072Zm-3.528.24,0.048-.1,0.1,0.072-0.12.1h-0.1Zm-0.264.768V45.877l0.264-.144,0.192-.1-0.024.192,0.216,0.048,0.384,0.216-0.1.432h-0.216l0.024,0.12,0.1,0.048-0.1.048-0.264-.24-0.048-.264-0.192.168-0.12.336-0.12.072,0.024-.072-0.12-.12Zm2.952-.432V45.757h0.1l-0.024.048,0.144,0.048,0.12-.048-0.048-.072,0.048-.048,0.072,0.12-0.1.432-0.168.408-0.1-.024,0.072-.408Zm-0.6.072-0.048.048v-0.1h0.072l0.12,0.1v0.144l-0.168.1,0.048-.072,0.048-.1Zm0.168,0.816,0.024-.168,0.12-.072v0.168Zm-1.56.5-0.072-.144-0.264.216-0.36-.408h0.216L631.989,47l0.192-.12,0.12,0.168,0.1,0.144Zm-1.032,6.7,0.192-.576L631.8,53.2l-0.144-.144-0.144.024-0.12.12-0.1.024,0.048-.048,0.1-.12,0.1-.288-0.144-.1-0.144-.144,0.12-.24-0.048-.144-0.048-.048,0.1-.072,0.12-.1-0.048-.12-0.024-.12-0.192-.192,0.072-.264,0.048-.336-0.048-.048-0.1-.384,0.1-.384,0.1-.264,0.048-.168,0.12,0.024-0.192-.216-0.144-.336,0.168-.144,0.144,0.1,0.12-.192-0.1-.144h-0.192l0.072-.456,0.048-.336,0.1-.432-0.048-.048-0.144-.072,0.048-.072,0.12,0.072,0.216,0.024,0.216,0.24-0.024.24-0.144.216,0.144,0.168-0.072.264,0.168,0.288-0.048.192-0.072-.072L631.8,49l0.288,0.336,0.1,0.312,0.024,0.264h0.144l-0.048-.1V49.741l0.1,0.048V50.2l-0.024.264,0.072,0.36-0.24.144v0.168h0.24l-0.024.192-0.216.024-0.048-.168-0.168-.072,0.12,0.336,0.1,0.192,0.12,0.024,0.192,0.168L632.493,52l0.072,0.312-0.048.36-0.12.48,0.048,0.24-0.024.192,0.024,0.216v0.24l0.024,0.072-0.264.216-0.144.168,0.072,0.24h0.336l0.048,0.168-0.1.048-0.216.24-0.168.264-0.24.288-0.1-.024,0.072-.264,0.024-.168,0.072-.048,0.192-.168-0.1-.12-0.192.12-0.1-.312-0.168.168-0.192.024,0.048-.216,0.264-.336Zm3.552-6.313v0.1l-0.072-.1,0.024-.072Zm-0.648.048,0.072-.024v0.12h-0.144Zm-2.976.24,0.168-.192v0.288l-0.168.1V47.893Zm3.264-.144,0.144-.024-0.024.192-0.144-.024Zm0.624,0.456,0.072,0.12-0.168.024-0.168-.12-0.144.24-0.12-.072h-0.072l0.024-.1,0.168-.192,0.24-.12,0.048,0.048-0.072.072,0.024,0.1h0.168Zm-2.976.024V48.085l0.144,0.144v0.12Zm1.656,0.072h0.24v0.168l-0.24.024V48.3Zm5.352,0.216,0.168-.024-0.024.12-0.192.072Zm-0.7,0,0.192,0.024-0.024.168-0.168-.024V48.517Zm-6.144.12V48.8l-0.168-.048-0.024-.168Zm0,0.36,0.1,0.144v0.12l-0.048-.072-0.048-.1V49Zm7.944,0.192,0.12-.072,0.048,0.048-0.072.072H640.2Zm-8.448.336,0.048-.168-0.1-.144-0.072.048,0.048,0.168Zm8.208-.168,0.072,0.1-0.168.024-0.024-.168Zm-0.264.456,0.072-.072L639.933,50l-0.1.264-0.168-.24-0.048-.192Zm-7.944,0-0.36.168-0.12.1,0.1,0.1,0.36-.144Zm0.264,0.552-0.168.048,0.048,0.048Zm3.768,0.336-0.168-.1-0.024-.1,0.1-.048,0.1,0.12V50.7Zm-4.536-.12,0.1,0.024-0.048-.1Zm8.736,0.456-0.168.072-0.144-.024v-0.12l-0.1-.216,0.024-.24,0.144,0.024,0.072,0.288,0.192,0.12,0.072,0.048Zm0.1-.264-0.12-.048,0.024-.072,0.1,0.048v0.072Zm-6.144.144,0.24-.216,0.192,0.216-0.24.192h-0.048l-0.072.024Zm2.784,0.36-0.144-.192-0.1.072h-0.12l0.1-.024V50.917l0.216-.168,0.1,0.168h-0.1l0.12,0.288Zm2.352-.24-0.12-.12-0.024-.1,0.264,0.12Zm-3.864,3.792-0.168.384,0.12,0.1,0.192-.168,0.336,0.216,0.072,0.264-0.12.36h-0.12l-0.288.072-0.192-.288h-0.072l-0.048.264h-0.12l-0.072.1-0.144-.336-0.144.192h-0.24l-0.264-.144,0.048-.216,0.072-.168,0.072-.1-0.12-.12-0.312.024-0.168-.312,0.168-.5,0.072-.528,0.168-.1-0.36-.168,0.1-.336-0.048-.384V52.405l0.192-.528-0.24-.312,0.048-.216,0.144,0.072,0.288-.072,0.288-.144,0.36-.288,0.144,0.312-0.264.144-0.048.072,0.12,0.36-0.168.336h-0.1l-0.12-.168,0.24-.216-0.168-.216-0.168.1-0.1.048,0.048,0.24,0.216,0.648L634.2,52.6l0.12,0.12,0.168,0.36,0.264-.072,0.024,0.336-0.288.192,0.24,0.288,0.192,0.24,0.192,0.5Zm-3.528-3.888-0.12.168-0.072.144,0.12-.072Zm3.312,0.336V51.133h0.144l-0.024.1Zm0.384,0.24-0.12-.12,0.12-.1,0.168-.072,0.048-.048-0.072.144,0.1,0.024,0.024,0.1Zm0.168-.12-0.168-.048-0.12.048,0.12,0.048Zm-0.36.5-0.24-.024-0.12-.216-0.1-.072,0.024-.072,0.072,0.048v0.1l0.24,0.192,0.168-.144Zm-3.216.336-0.12.192v0.12l0.432-.072-0.168-.456-0.12-.264-0.1-.024-0.048.24-0.264.192,0.048,0.192h0.072V52.165l0.192-.072Zm1.872,0.24,0.024,0.12,0.072-.1Zm-1.872.36,0.12,0.024-0.024-.1-0.1-.024v0.1Zm1.944,0.36,0.12-.024,0.024-.144h-0.144V53.2Zm-0.024.336,0.12,0.024,0.024-.12h-0.12Zm-1.944.312-0.024-.168L631.7,53.7l-0.264.048,0.144,0.12h0.264Zm0.216,0.024-0.216-.024,0.1,0.216Zm2.472,0.192-0.048.048v0.1l0.072-.1Zm-0.216.288-0.024.144,0.264,0.024,0.216-.168-0.144-.12Zm-0.144.072-0.12.024,0.024,0.072Zm0.528,0.6,0.024-.216-0.192.12Zm-0.648.072v0.168l0.144-.048-0.048-.144Zm-2.664.168-0.048-.1,0.144-.048,0.024,0.12Zm0.84,0.144-0.168.072-0.024-.12,0.168-.072Zm7.3-.12,0.1,0.144-0.072-.048-0.1.048-0.12-.12Zm-3.216.048,0.1,0.024-0.048.048h-0.072Zm0.768,0.336V55.381l0.1,0.024,0.024,0.288-0.216.336-0.12-.072,0.048,0.024Zm3.24-.264,0.072,0.048,0.241,0.1,0.144,0.168h-0.313l-0.24-.192Zm-8.9.072v0.312l-0.144-.1-0.048-.264Zm2.9,0.072,0.168,0.024,0.216-.048-0.12-.1Zm0.912-.12-0.1.144-0.1.168,0.336,0.024Zm0.672,0.048,0.312,0.048,0.12,0.216-0.072.072-0.168-.144H636Zm0.7,0.168,0.048,0.216-0.168-.072L636.6,55.6Zm-2.448.1v-0.12l-0.168.048Zm3.816,0.072,0.12-.192,0.192,0.024-0.12.168h-0.192l0.048,0.1-0.024.072-0.024-.048v-0.12Zm1.752-.144-0.024.072-0.072-.048,0.024-.072Zm-2.184-.024,0.072,0.024-0.072.024-0.1-.024Zm-0.744.144,0.024-.048,0.024,0.072-0.024.144-0.024-.024V55.789ZM639,55.813l0.048,0.048,0.048-.048v0.1H639v-0.1Zm-6.336,1.992-0.168.024,0.048-.144,0.144-.072-0.144-.048-0.24.072-0.24-.048-0.144.192,0.216,0.048,0.144,0.12,0.1,0.192-0.1-.048-0.072.024L632.061,58l-0.192.1-0.144-.048-0.072.1-0.072.072-0.168-.192-0.072-.144,0.144-.216,0.024-.216-0.12-.1,0.144,0.024,0.264-.1-0.192-.12-0.144-.12-0.024-.288,0.048-.216,0.12-.024,0.048,0.168,0.12-.024V56.39l-0.12-.12-0.264-.048V56.077h0.048l0.192,0.072,0.36-.144,0.336,0.192v0.36l-0.048.312,0.288,0.024,0.216,0.216L633,57.158l-0.072.216-0.192.24Zm8.329-1.536-0.072-.12h0.168l0.048,0.12H640.99Zm-9.193-.1,0.072,0.12,0.072,0.24,0.1-.048-0.12-.264Zm9.049,0.672-0.048-.168-0.1-.24v-0.12l0.1,0.072,0.168,0.024,0.048,0.144-0.072.24Zm-0.385-.24v-0.1h0.072l0.048,0.12Zm0.12,0.168,0.1,0.024-0.024.1-0.072-.024v-0.1Zm-0.288.48,0.048-.048h0.12l0.1-.048-0.024-.072h0.241l0.048-.168,0.048,0.24-0.361.168Zm-8.184,0,0.216,0.312-0.024-.312h-0.192Zm7.944,0.336-0.144-.264,0.1-.048,0.168,0.144Zm-6.1.456-0.264-.144-0.24-.288-0.1.216-0.288.336-0.264-.192,0.264-.312,0.1-.312h0.144l0.312,0.072,0.36,0.36Zm1.608-.576-0.12-.072v0.264l0.072,0.312-0.1.1-0.072-.168-0.024-.312,0.12-.192h0.144l0.048,0.048Zm2.736,0h0.1l0.048,0.12-0.1-.024Zm2.569,0.384-0.241.072,0.072,0.1,0.073,0.024-0.073.048-0.168-.144-0.144-.12,0.024-.072,0.024,0.072h0.072l0.241-.168,0.24-.192,0.048,0.12Zm-1.489-.048,0.024-.144h0.168l0.072-.072,0.1,0.024,0.024,0.048-0.024.072-0.1-.072-0.072.1-0.072.12Zm-4.536.12-0.168-.024-0.072-.12-0.12-.024-0.072-.1,0.1,0.024,0.1,0.1,0.072-.072-0.024.072,0.072,0.048,0.12-.024v0.12Zm1.992,0.24-0.1-.12-0.072-.192,0.024-.144,0.12,0.12v0.216l0.1,0.072Zm1.2-.312h-0.1l0.024-.1,0.072-.024v0.12Zm-3.672.216-0.24-.144,0.048-.168,0.288,0.12,0.1,0.288Zm-2.88-.12,0.168-.024-0.072-.144Zm6.888-.024L638.3,58l-0.12-.1,0.12-.12,0.072,0.1v0.048Zm0.936,0.216-0.192-.1-0.072-.144h0.216l0.1,0.192Zm0.72,0.1V58.31l-0.024-.072-0.24-.072-0.192-.024,0.384-.24,0.12,0.048-0.12-.024-0.048.12Zm-3.768-.144h-0.168l-0.048.1v-0.1l0.24-.144,0.192,0.1Zm-1.032.048-0.1.024,0.024-.12h0.072v0.1Zm29.233-.792-0.168-.432-0.312-.408-0.144-.48-0.24-.36-0.144-.456-0.408-.864-0.168-.456-0.24-.408L662.3,52.6l-0.264-.384-0.192-.48-0.216-.408-0.168-.48-0.216-.36L661.1,50l-0.264-.432-0.192-.408-0.24-.408-0.12-.456-0.48-.84L659.661,47l-0.432-.912-0.12-.384-0.36-.84-0.48-.888-0.384-.912-0.216-.36-0.144-.456-0.432-.456-0.816-.216-0.768.24-0.456.432-0.144.432-1.032,2.16-0.264.432L652.269,48.3l-0.12.408-0.264.432L651.5,50l-0.36.624-0.168.456-0.336.624-0.144.5-0.216.384-0.168.48-0.672,1.248-0.7,1.752-0.288.384-0.217.48-0.288,1.008,0.12,0.5,0.481,0.12h2.112l0.624,0.072,0.552-.24,0.432-.432,0.408-.816,0.408-.456,0.576-.24,0.48,0.048,1.344-.024,0.5,0.072,0.552-.072h0.432l0.5,0.048,1.128-.048L659.4,56.75l0.5,0.384,0.12,0.432L660.286,58l0.408,0.384,0.624,0.24,0.432-.048,0.84,0.072,1.488-.048,0.432-.144,0.1-.5Zm-7.2-2.568-0.432-.048-4.44-.048-0.552.264-0.408.384L650.9,56.486l-0.336.456L650.3,56.87l0.216-.864,0.168-.408,0.288-.456,1.2-2.664,0.12-.408,0.312-.456,0.408-.864,0.144-.432,0.7-1.344,0.72-1.752,0.264-.432,0.552-1.344,0.7-1.32h0.36l0.312,0.48,1.416,3.072,0.1,0.456,0.552,0.84,0.144,0.48,0.24,0.408,0.144,0.456,0.216,0.408,0.192,0.456,0.265,0.456,0.336,0.888,0.24,0.408,0.144,0.48L661.15,54.3l0.264,0.408,0.792,1.8,0.072,0.384-0.312.072-0.5-.816-0.408-.816-0.432-.432-0.576-.192Zm0.408-10.441,0.12-.024v0.072l-0.12.072V44.34Zm0.192,0.816,0.1,0.144-0.048.024-0.072-.1Zm1.56,6.6-0.1-.432-0.312-.432-0.216-.456-0.144-.5-0.648-1.32-0.264-.408-0.312-.936-0.288-.456-0.336-.84-0.264-.408-0.288-.264-0.336.264-0.168.408-0.216.408-0.144.456-0.912,1.8-0.12.48-0.48.888-0.12.408-0.432.912-0.288.408-0.744,1.824,0.024,0.456,0.624,0.192h6.72l0.6-.264,0.048-.384-0.6-1.392Zm-5.136-6.265,0.072,0.144-0.1-.024-0.1-.144ZM653.9,46l0.072-.12,0.144-.1V46l0.1,0.1-0.1-.024-0.1-.072-0.12.048-0.072-.024Zm-0.144.528,0.144-.048-0.048.168-0.144.1Zm0.144,0.528-0.072-.1,0.024-.1Zm0.24,0.1-0.1.048-0.12-.1-0.024-.024,0.192-.048Zm2.3,0.336,0.12-.048,0.024-.12,0.048,0.024-0.024.1-0.072.192-0.168-.024Zm2.52,0.048,0.216,0.024-0.168.1-0.168-.024Zm0.336,0.1v0.12l-0.1-.168Zm-3.768.288,0.168-.024,0.048-.1,0.048,0.144-0.192.192-0.1-.12Zm1.032,0.288-0.1.048V48.181l0.072-.1Zm-3.7-.024,0.168,0.072,0.144-.1-0.024-.048,0.024,0.024v0.288l-0.168-.024-0.168-.216-0.024-.072Zm6.792,0.432,0.1-.048-0.024.1,0.048,0.12-0.144-.048-0.192.168,0.288,0.144v-0.1l0.121,0.192-0.217.168-0.192-.168-0.192-.192V48.661l0.192-.24,0.144,0.1Zm-6.744-.024,0.048,0.168,0.168,0.072,0.048,0.1-0.216-.168-0.12-.1-0.1.072-0.024-.072Zm2.592,0.048v0.1l-0.12-.12Zm1.7,0.168,0.168-.024-0.1.072-0.144.072Zm-4.392.384V48.973l0.12,0.168,0.024,0.264v0.024l-0.024.1-0.072.048-0.024-.048,0.072-.12Zm-0.84.864,0.168-.024,0.264-.072,0.048-.192h-0.192v-0.12h0.192V49.429l-0.192-.144H652.2l0.072-.1h0.24l0.216,0.48v0.456l-0.12.216-0.168-.144-0.288-.144-0.216.072Zm4.032-.624,0.312-.24,0.288,0.192,0.312,0.936,0.264,0.408,0.1,0.384,0.24,0.48,0.168,0.432-0.048.432-0.408.192-1.872.024-0.456-.192L654.837,52l0.96-2.184Zm-0.96-.24L655.2,49.4l0.072,0.288-0.024.288-0.12-.264V49.453l-0.216-.072-0.048-.192h0.192Zm5.3,0.552-0.168.192h-0.144V50.1L660,50.077h-0.1l0.072-.12-0.072-.168-0.169.264-0.144.048V49.645l0.1-.12,0.433,0.192Zm-2.785-.1,0.168-.1,0.048,0.1-0.24.072Zm-3.024.24,0.072-.048,0.216-.048,0.192,0.12-0.216.072-0.216-.1-0.048.024-0.072-.048ZM649.557,55h0.12l-0.024-.168H649.7l0.144,0.072,0.288,0.072,0.048-.192-0.168-.024,0.024-.048h0.144l0.1-.024,0.024-.1-0.336-.024-0.1-.192,0.144-.072,0.048-.048V54.109l0.1-.384,0.144-.384,0.072-.12,0.024-.168,0.192-.12-0.024-.408,0.264-.216,0.024-.144,0.12-.168V51.661l0.312-.144-0.144-.192,0.216-.072,0.1-.144-0.072-.1,0.312-.048,0.216-.1-0.024-.072,0.024-.048-0.12-.12-0.1-.192,0.1-.048,0.144-.048,0.168,0.048,0.048,0.144-0.168.072,0.144,0.144,0.144,0.192v0.1l-0.1.048,0.072,0.12-0.072.024,0.048-.048-0.1-.024-0.24.1-0.264-.072-0.048.216,0.216-.1,0.264,0.168-0.24-.024-0.024.216-0.024.312L651.837,52l-0.1.336-0.312.456-0.072.264-0.12.456-0.144.48-0.312.168-0.144.192-0.12.192-0.048.336-0.168.24,0.1,0.144-0.384.216-0.312.048-0.12-.36v-0.12l-0.1.024Zm8.256-4.44h0.144l0.048,0.144-0.192.024V50.557Zm2.689,0.12,0.144,0.072,0.072-.024,0.072,0.1-0.048.144-0.12.072,0.048,0.24-0.312-.072-0.192-.072,0.192-.24-0.192-.24,0.048-.072Zm-1.825,2.952-0.072-.1-0.144.024-0.192.024,0.024,0.072,0.12,0.144-0.1.12-0.024-.1-0.024-.144-0.168-.168h-0.1l0.048,0.192-0.168.168-0.288-.048-0.1-.12-0.072.192-0.192-.072-0.1.048L657,53.821l-0.12-.1h-0.192v-0.12l-0.192.1h-0.12l-0.144.12-0.48.048-0.336.024V53.821l0.048-.12-0.5.192-0.192.1-0.216-.168-0.144.024-0.048-.024-0.144.1-0.5.048L653.3,53.8l-0.336-.168-0.12-.264,0.216-.624,0.048-.312,0.312-.12,0.408,0.024,0.072-.1-0.264.024V52.069h0.216l-0.24-.144,0.048-.312-0.024-.1,0.1,0.024,0.144,0.288,0.24,0.048-0.1-.144-0.144-.192,0.168-.264-0.192-.312,0.072-.144,0.288,0.1h0.144l0.216,0.1-0.144.432-0.192.12h0.192l0.12,0.48-0.24.24h0.048l0.144,0.024V52.6l0.192,0.24,0.1,0.168h0.432l0.216-.048,0.336,0.1h0.312l0.408,0.024,0.288,0.216,0.384-.168,0.144-.048-0.072.144-0.168.024,0.24,0.288,0.12-.36,0.1-.168,0.072-.144,0.144,0.072-0.144.12-0.048.12,0.048,0.168,0.192,0.264,0.144-.24,0.1-.12,0.12,0.1,0.1-.216-0.024.072,0.1,0.168h0.1l0.12-.12,0.1,0.048,0.144,0.168Zm-0.6-2.664-0.168.12-0.12-.12,0.072,0.024,0.144-.048Zm0.216,0.5V51.277h0.192l0.048,0.144h0.12l0.048,0.024h-0.168l-0.144.12-0.168-.1h0.072Zm2.617,0.1-0.072.168-0.288-.12-0.168-.216,0.24,0.072ZM659.4,52.933h-0.048l-0.024.144-0.144.048-0.1-.1-0.048-.072,0.288-.216-0.264-.312-0.072-.336-0.12-.12h-0.1v0.432l-0.144.168,0.192,0.1,0.024,0.144-0.168-.1-0.072-.072-0.072-.024-0.048-.1,0.144-.288,0.1-.432,0.192-.1,0.12,0.24-0.048.144,0.216,0.1,0.072,0.24,0.144,0.288Zm-1.224-.984,0.12-.192,0.144-.024L658.389,52h-0.24Zm3.049,0.312-0.144.1-0.144-.144-0.072.216,0.072,0.144-0.144-.216-0.024-.312,0.12-.1Zm-2.9.048-0.12.12h-0.144l0.072,0.144,0.048,0.072-0.144.024-0.168.024,0.048-.24,0.24-.168Zm-7.2.12-0.144.1-0.024.144,0.144-.072Zm3,0.384,0.216-.168,0.024-.12h-0.24v0.288Zm-0.456-.048v-0.1l-0.048-.072-0.24.192,0.192,0.168,0.048,0.1,0.072,0.1,0.1-.048-0.144-.192Zm7.873-.024,0.048,0.144-0.048.12-0.048.048,0.048,0.1,0.048,0.168-0.1-.024-0.1-.336Zm-7.057.552,0.288-.072,0.024-.216-0.12.1Zm-3.6-.192-0.144-.048V53.2l0.072,0.024Zm7.944,0.144-0.072-.12h0.12l0.072,0.12h-0.12Zm3.1,0.144-0.024-.048,0.12,0.1-0.1.12-0.072-.024Zm-5.641.312,0.168-.1,0.048-.12-0.12.048Zm-0.456-.024,0.144-.024,0.072-.12-0.12.024Zm-2.376.024,0.144,0.12,0.192-.1-0.144-.048Zm8.425,0.264,0.168-.24,0.168,0.072-0.048.1-0.144.216v0.24l-0.24-.048Zm-11.089-.144h-0.12l-0.072.1h0.144Zm-0.36.36-0.144-.168-0.12.168,0.192,0.216Zm9.12,1.752-0.312.144-0.072.12-0.12-.048,0.024-.264-0.072-.192-0.24.168,0.024,0.288-0.336-.168-0.192-.072h-0.072l-0.048.048h-0.048l-0.024.12-0.024.072-0.024-.072-0.5.024-0.192.072-0.5-.1-0.36-.264-0.12.048,0.1,0.312h-0.312l-0.1-.024-0.264.1-0.5-.288-0.576.192h-0.312l-0.456-.024-0.048-.1-0.288.144-0.408.1-0.312.12-0.12-.192-0.1.168-0.024.24-0.12-.024-0.072-.1-0.24.168,0.072,0.384-0.216.1-0.216-.168-0.048.312,0.024,0.192,0.12-.168,0.168,0.024-0.168.24-0.216-.168-0.144-.048-0.048.192-0.1.12-0.336.36-0.36.1-0.072-.072-0.24.1L650.157,58l-0.312.192-0.264-.144-0.192.12-0.408-.36,0.024,0.144-0.072.12L648.717,58l-0.024-.144,0.192-.048,0.072-.24-0.192-.192-0.048.048v0.12l-0.168-.072V57.35H648.6l-0.024-.264,0.12-.288,0.24-.216-0.024-.1,0.216-.336,0.024-.432,0.168,0.216,0.5,0.24,0.024,0.432,0.1,0.072h0.024l0.192,0.288,0.192,0.216,0.144-.048,0.216,0.264,0.216,0.144L651,57.47l-0.216-.288,0.312-.5h0.168l0.192-.192h0.312l-0.048-.264-0.24-.144,0.048-.288,0.288-.1,0.024,0.168,0.168-.12,0.024-.144,0.1-.144,0.144-.24,0.288,0.024-0.024.192-0.072.192,0.216-.024,0.168,0.072,0.12-.144,0.072-.288,0.336-.168,0.336-.048,0.072,0.192,0.312-.1,0.408-.048,0.528,0.048,0.36-.072,0.12,0.072L655.7,55l0.12,0.1-0.072.12h-0.192l-0.048.12h0.456l0.216-.12-0.168-.048,0.024-.12,0.192,0.072,0.384-.024,0.576,0.24,0.312-.24,0.144,0.072,0.1,0.144,0.12,0.024,0.072-.144,0.456,0.456,0.12,0.168,0.072-.12-0.144-.264,0.144-.12,0.144-.048,0.24-.024,0.072,0.192,0.1-.048,0.1-.024,0.12,0.072,0.216-.144,0.1,0.12-0.048.168Zm-6.768-.648V55.093l0.144,0.024-0.024.192Zm9.265-.12,0.168-.072,0.12,0.12h0.144l-0.024.048v0.192l-0.168.168-0.048-.1V55.333Zm-1.632.576-0.192-.1-0.072-.024,0.024-.216,0.216-.048V55.6Zm-6.625-.144,0.024,0.072,0.072-.072-0.024-.072Zm-4.272-.048,0.192,0.168,0.336-.024,0.024,0.312-0.48-.12-0.1-.264Zm10.248,0,0.073,0.024v0.264l0.072,0.192,0.1-.024-0.072.1-0.1-.024-0.169-.24Zm-4.848.144h0.144l0.024-.1h-0.12Zm7.393,0.1,0.216-.12,0.192,0.1-0.12.072-0.072.144-0.048.144-0.1-.12,0.048-.192Zm-6.793-.048,0.1,0.072,0.024-.1-0.12-.024v0.048Zm1.32-.024,0.024,0.12h0.168l0.192,0.072,0.144,0.024V55.741l-0.192-.048Zm1.008,0.168,0.048-.024,0.072-.072h-0.12v0.1Zm2.521,0.024,0.264-.1-0.192.264-0.288.072ZM654,55.861l0.288,0.168-0.072-.168H654Zm-1.824.144,0.144,0.048,0.072-.144-0.168-.024Zm11.113,0.48,0.168,0.12-0.264.264-0.216-.24-0.048-.048v-0.12l-0.216-.216,0.12-.336h0.312l-0.024.192,0.144,0.048-0.072.168-0.1-.072V56.39Zm-2.736-.216h0.168l0.048,0.1h-0.072Zm0.288,1.56-0.1.048V57.614l0.264-.168-0.048-.24-0.12-.024-0.144.192-0.168-.072,0.024-.192-0.168.168-0.024-.12,0.168-.264-0.24-.024h-0.1l-0.048-.048,0.048-.072-0.024-.072V56.486l0.24-.144,0.12-.048-0.072.048V56.39h-0.072l-0.12.144,0.048,0.144,0.168-.072,0.24,0.24,0.288,0.192,0.168-.24-0.12-.168,0.312,0.192,0.144,0.312,0.144,0.1,0.12,0.168-0.048.024-0.1-.144-0.12-.1-0.288-.048L661.2,57.3l0.1-.024-0.1.312-0.336.1Zm-11.569-1.224-0.288.24,0.048,0.1,0.384-.24,0.144-.264-0.1-.048Zm10.705-.024-0.168.024,0.1-.12,0.12-.048Zm-10.153.5,0.072-.192,0.024-.192-0.216-.024,0.072,0.288Zm1.872-.264,0.1-.12-0.168-.024Zm10.945-.024,0.1-.048,0.072,0.1Zm-11.713.24,0.048,0.1-0.048.1,0.216-.144L651,56.894Zm13.009,0.888-0.1-.1-0.168.024,0.072-.024-0.192-.1-0.264.048L663.574,58l0.048,0.1-0.12-.048-0.216-.264,0.024-.192-0.072-.1-0.312.144-0.216.072-0.432-.216-0.144.12-0.072.12,0.168-.048,0.1,0.1-0.12.048-0.24-.072-0.024.12,0.216,0.072,0.072,0.216-0.36-.072-0.432.072-0.12-.192-0.072-.072-0.072-.048,0.1-.024,0.048,0.1,0.24-.048-0.168-.288,0.12-.168,0.12,0.1,0.264,0.072,0.144-.264,0.144,0.1,0.144-.144,0.168,0.12,0.216,0.144,0.24-.072,0.24-.168,0.1-.12-0.12-.144-0.048-.072,0.072-.048,0.216,0.144,0.168,0.024,0.072,0.072-0.024.12-0.288.192,0.168,0.072h0.168l0.072-.024,0.192,0.024,0.024,0.24-0.048.1Zm-15.073-.792-0.072.048,0.12,0.12,0.192,0.144,0.048-.144-0.168-.12Zm0.84,0-0.072.048,0.192,0.12,0.12,0.216,0.048-.216-0.144-.144Zm13.105,0.024v0.12l-0.1.048-0.024-.12Zm-12.409.6,0.048,0.12h0.216l-0.072-.1Zm12.817,0.408-0.12-.048-0.1-.144-0.024-.072,0.072,0.024L663.19,58l0.072,0.216Zm-0.528,0-0.072.072,0.024-.12,0.12-.1ZM685.8,57.3l-0.336-.36-0.24-.408-0.192-.456-0.36-.408-0.456-.816-0.288-.384-0.192-.432-0.288-.432-0.7-1.248-0.841-1.2V50.629l0.216-.552,0.432-.264,0.7-.7,0.528-.816,0.24-.456,0.12-.432,0.216-.5L684.6,46l0.024-.456,0.144-1.008L684.718,44l0.1-.456-0.024-.96-0.192-.552-0.5-.264-2.185.072-0.7-.072-0.576.288-0.264.5,0.072,1.464-0.12,1.008-0.24.96-0.192.456-0.312.36-0.288.384-0.36.312-0.432.264-0.408.192-1.056.216-0.576.024-0.432-.264,0.024-.5L675.981,47l0.072-3.48-0.072-.456-0.024-.48-0.24-.528-0.432-.24-0.5-.048-0.48.048-1.944-.048-0.384.312-0.336.432v0.5l0.048,0.48-0.072,1.44,0.024,0.456,0.072,0.48-0.12.96,0.072,0.5,0.048,5.761-0.072.432,0.024,0.5-0.072.96,0.12,0.96-0.048.528,0.024,0.48-0.048.432,0.072,0.48,0.168,0.5,0.7,0.264,2.52-.024,0.7-.24,0.24-.528-0.072-2.9,0.048-.528V52.933l0.216-.432,0.6-.288,0.72,0.144L678,52.717l0.984,1.632,0.6,1.248,0.288,0.408,0.216,0.408,0.312,0.408,0.648,1.248,0.456,0.36,0.816,0.168h2.665l0.5,0.048,0.408-.216,0.12-.552ZM684.07,42.084l-0.048.12-0.12-.1,0.024-.024h0.144Zm-1.128.936V42.612l0.288-.312,0.12-.144,0.144-.024v0.1L683.35,42.2l0.024,0.144,0.1,0.288,0.432-.528,0.024,0.144,0.192,0.144v0.12l-0.1.048-0.024.12,0.024,0.144,0.072,0.048,0.1,0.1-0.024.12-0.144-.1L684,42.828l-0.216-.072-0.168-.048,0.048,0.1-0.048.12-0.072.048,0.12,0.1-0.024.192-0.1.12,0.336,0.12,0.288-.264h0.264l0.048,0.216-0.168.24-0.072.144-0.024.24,0.048,0.12V44.22l-0.048-.144H684.07l-0.144-.048L684,43.884l-0.1-.048-0.264.072V43.572l-0.144-.072-0.144.216-0.144-.12,0.1-.192,0.144-.168-0.216-.144-0.144-.264-0.12.072,0.1,0.1-0.048.144Zm-9.169-.792-0.024-.072L673.8,42.2l0.1,0.048,0.048,0.12-0.024.144,0.192,0.048,0.024,0.1-0.216.024-0.24.144-0.1-.1,0.192-.216,0.1-.216Zm7.68-.048,0.024,0.12-0.024.048-0.072-.048Zm0.672,0.048,0.168-.048-0.168.168h-0.216l-0.024-.048Zm0.721,0.024-0.168.144-0.1.12-0.048.192-0.1.024-0.1-.072-0.024-.144,0.337-.216Zm-10.657.144V42.3l0.12,0.072,0.12,0.024-0.072.12-0.072.048-0.072.1-0.024-.12,0.072-.1Zm0.432,0.48-0.024-.168,0.192,0.024,0.216-.024,0.048-.1,0.024-.144,0.1,0.144-0.144.192-0.144.072h-0.264Zm1.728-.36,0.144,0.024-0.048.144L674.3,42.66Zm6.864,0.072,0.1,0.1h0.1l-0.048.12,0.072,0.048,0.12-.144,0.1-.048,0.1,0.024-0.048.1h-0.12l-0.024.072,0.1,0.072,0.192-.072,0.24,0.12,0.192,0.168,0.048,0.1-0.12-.048-0.264-.072-0.144-.192L681.717,43l-0.1.024-0.12-.12-0.168.024-0.072-.12-0.12-.12-0.048-.1h0.12Zm2.185,0.288,0.024-.048-0.048-.1H683.23l0.024,0.144H683.4Zm-8.449-.1,0.024,0.1h-0.1Zm7.729,0.048-0.048.072h-0.073V42.852Zm-8.329.072,0.072-.048,0.072,0.072Zm-0.864.216,0.048,0.1-0.1-.048-0.1-.072Zm-0.312.192L673.1,43.26l-0.024-.12,0.048,0.1Zm-1.1-.144h0.12l-0.048.144h-0.12Zm2.472,0.072,0.12,0.072,0.024,0.072-0.144-.048v-0.1Zm-1.8.576-0.168-.168,0.12-.264-0.048-.072,0.1,0.1-0.072.1,0.144,0.144Zm9.168-.24,0.1-.144-0.048-.072-0.072-.024h0.072l0.048,0.1,0.024,0.144,0.024,0.072Zm-9.792-.168,0.144,0.048,0.072,0.048h-0.072l-0.144.072-0.1-.072Zm9.264,0.192,0.144-.144,0.192,0.048-0.144.1h-0.192Zm0.888,12.481-0.216-.456-0.576-.768-0.264-.456-0.288-.384-0.24-.384-0.168-.432-0.288-.36-1.008-1.68-0.24-.336-0.48-.36-0.5-.168-3.24.168-0.48.24-0.168.456,0.072,0.432-0.024,1.464-0.1.48,0.072,0.48-0.048.456,0.072,0.456-0.048.48,0.048,0.72-0.216.768-0.288-.024-0.048-.528,0.048-.432-0.048-.432,0.024-1.9-0.1-.48,0.1-.96-0.072-1.44,0.048-.48-0.048-.456,0.048-.528-0.072-1.9,0.072-.48-0.048-.912,0.072-.5-0.024-1.176,0.12-.72h0.288l0.168,2.376-0.048.7,0.024,0.7-0.048.48,0.024,0.5-0.048.456,0.048,0.456,0.168,0.48,0.48,0.24h1.584l1.608-.192,0.48-.144,0.528-.1,1.248-.672,0.648-.648,0.624-.816,0.48-.864,0.168-.5,0.12-.936,0.1-.48,0.024-.552,0.072-.48,0.313-.024,0.144,0.528,0.048,0.48-0.481,1.92-0.6,1.272-0.288.456-0.336.336-0.288.336-0.384.36-0.384.288-0.408.168-0.36.432,0.072,0.528,0.24,0.36,0.24,0.456,0.312,0.432,2.617,4.2,0.192,0.432,0.144,0.408-0.336-.024Zm-9.192-12.409-0.024-.072,0.1-.024,0.048,0.072Zm1.7-.072-0.048.048-0.048.072,0.024,0.12-0.048-.144,0.048-.072Zm0.24,0.024,0.048,0.1,0.1,0.072,0.072,0.1h-0.12L675,43.716Zm6.6,0.624,0.1-.192-0.144-.024-0.024-.216,0.264-.072,0.024,0.216-0.12.12,0.1,0.1,0.192,0.12-0.12.192Zm-7.2-.384h-0.072l-0.024-.072,0.072-.024Zm6.408-.072,0.144,0.048L681,44l-0.168-.1v-0.12Zm2.4,0.1,0.072-.024,0.1,0.1-0.024.1-0.072-.12Zm-11.089.24,0.024-.168,0.144,0.024-0.024.192Zm8.688,0.5h0.144l0.24-.144-0.1-.24,0.24-.12,0.144,0.312-0.12.288-0.288.144-0.12.168-0.1-.168-0.12-.192-0.024-.12Zm-6.168-.48V44.2h-0.024l-0.072-.048h0.1Zm8.953,0.048h0.12l0.024,0.072-0.12.024Zm-8.233.1,0.144-.048-0.024.12-0.144.024Zm8.953,0.12-0.048-.048,0.072,0.048,0.048,0.048Zm-0.984.456,0.1,0.048,0.024,0.048,0.12-.144-0.024-.144-0.024-.168,0.192-.048,0.072,0.024,0.168-.048,0.216,0.024v0.168l-0.12.048-0.144-.12-0.072.1-0.024.1,0.024,0.048-0.1.144v0.072l0.048,0.048-0.12-.048-0.048.024-0.288.024-0.12-.24Zm-1.921.1-0.072.048,0.048-.1,0.12-.1,0.12-.048-0.1.168Zm2.785,0.312-0.144.048-0.216.1-0.048.12,0.048,0.072,0.1-.048,0.12-.024,0.024,0.144,0.12,0.168-0.024.072,0.024,0.192L684,46.333l-0.12.024-0.024.072-0.072.1-0.168.12,0.072,0.072,0.168-.024-0.192.1-0.216-.144-0.384-.024,0.168-.288-0.1-.1,0.1-.144-0.1-.36,0.048-.432,0.264-.024-0.144.288,0.024,0.36,0.144,0.216-0.048.12,0.192-.024V46.069L683.47,46l0.12-.072h0.1l0.072,0.144,0.048,0.24,0.1-.12,0.1-.144-0.024-.1,0.1,0.024,0.1-.12L684,45.781l-0.144-.12-0.12-.048-0.144.144-0.144-.12,0.288-.1,0.072-.12-0.12-.072h0.168l0.12-.168,0.072-.168,0.1-.192,0.192,0.288Zm-9.409-.168-0.072.048-0.072-.1,0.072,0.048h0.072Zm6.864,0.12-0.1.1,0.024-.192,0.12-.048Zm-1.032.408,0.144-.24,0.264-.144,0.072-.144,0.192,0.072-0.168.1-0.1-.024V45.4l0.144,0.072,0.168,0.144-0.12.24,0.1,0.1,0.12,0.072,0.072,0.024h-0.072l-0.192.048-0.072.072h0.288l-0.048.264-0.192-.024-0.168.024-0.12.1,0.1,0.048-0.1.048V46.285l0.168-.24-0.072-.144-0.216-.144-0.072-.1,0.048,0.24-0.12.168-0.048-.192v-0.24Zm-8.4-.5,0.1,0.072,0.024,0.12-0.048.024-0.024-.12-0.1-.048Zm8.784,0.288v0.12l0.072-.024Zm0.5,0.312,0.1-.1,0.072-.048v0.144l-0.12.072h-0.1Zm-9.48-.072,0.072-.048-0.072.072-0.072-.024h0.072Zm0.576,0.432-0.072-.1h0.144l0.048,0.1h-0.12Zm2.784,0.024-0.048.168-0.144.024-0.144-.024,0.192-.144,0.024-.072Zm4.872,0.648v-0.1l0.048,0.1,0.24,0.24,0.12-.024,0.1-.12,0.072,0.072-0.072-.048-0.216.288-0.192-.072-0.048-.12-0.144-.072-0.024-.072Zm3.145,0.6-0.192.24-0.288-.216,0.12-.216,0.12,0.264,0.168-.1-0.1-.144-0.168-.144-0.336-.024V46.813l0.408-.024,0.456,0.12,0.12,0.288-0.1.048Zm-11.281-.144-0.024.12-0.1.072,0.024-.144,0.024-.1Zm10.416,0.024,0.048-.072,0.1,0.1-0.1-.024h-0.048Zm-0.024.048,0.024,0.048,0.024,0.072-0.1-.072Zm-2.16.168-0.024-.1,0.1,0.072,0.072,0.1h0.072l-0.072.048Zm2.593,0.312h-0.192l-0.144.24-0.049-.312,0.193-.168,0.072,0.1,0.216,0.072,0.024,0.1Zm0.552-.048-0.048-.048-0.024-.072,0.048,0.048,0.048,0.072,0.048,0.024Zm-11.569-.072,0.168-.024-0.024.1-0.12.048Zm2.832,0.408-0.072.144-0.024-.12Zm7.824,0.384-0.12.12-0.1-.024h0.1l0.072-.048-0.1-.12,0.024-.192,0.12,0.072-0.072.12Zm0.409-.12-0.072-.12,0.1,0.072,0.048,0.024Zm-1.153.048,0.048-.12,0.168,0.048-0.024.12-0.072.072Zm-3.216.168,0.072-.216,0.12,0.12-0.168.048-0.024.12V48.541Zm-6.168-.024,0.024-.072,0.072-.048v0.1Zm2.472,0.12,0.024,0.1-0.048-.024-0.1-.12-0.024-.072,0.024,0.048Zm3.264-.1,0.1,0.024v0.144h-0.1V48.541Zm3.36,0.168,0.1-.072,0.1,0.024-0.1.072Zm0.624,0.264V48.829l0.12,0.024,0.024,0.1Zm0.216,0.168-0.1.144-0.312-.048-0.072.144,0.216,0.144-0.1.072,0.024-.1-0.264-.048-0.192-.144-0.072-.264,0.216,0.1,0.288-.12-0.048.024,0.168,0.12,0.24-.072,0.072,0.024Zm-1.368.624-0.072.024,0.144-.192-0.024.144,0.264,0.024,0.312-.024,0.024,0.144h-0.336Zm-8.9.072,0.12,0.048-0.1.048-0.1-.072Zm0.5,0.1-0.072.048,0.072-.1,0.1-.024Zm8.112,0.024-0.024.12h-0.048l-0.048-.1,0.048-.048Zm0.408,0.432-0.024.1-0.048.024V50.437Zm-8.184.12-0.072-.072,0.1-.024,0.048,0.048Zm-0.384.336-0.024-.072,0.072-.024,0.024,0.12Zm8.28,0.6-0.072-.048-0.024-.048,0.1-.12-0.048.12Zm-8.76.12h0.192l-0.048.048-0.168.024Zm6.6,0.36-0.12-.072,0.072-.024,0.12,0.048Zm-6.528.168h0.072l0.024,0.1-0.072.048Zm2.928,0.192-0.048.072-0.12.144-0.168-.048,0.1-.072,0.12-.12,0.048,0.072,0.1-.072,0.072-.024Zm-2.616.12-0.144-.024,0.024-.12,0.12,0.024v0.12Zm9.84,0.432h0.1l-0.048.072-0.1-.024Zm1.321,2.9h0.072l-0.144.024Zm0.12,0.432v-0.12l0.072-.072,0.048,0.1ZM684,56.51l0.024,0.048,0.048,0.024-0.12.024Zm-11.617.36-0.1-.048,0.072-.048,0.072,0.048Zm8.928-.024,0.048-.024,0.024,0.072Zm-6.36.192h-0.168V56.99l0.168-.048v0.1Zm9.337,0.192-0.144-.024-0.072-.072V57.11l0.072-.12,0.1,0.024,0.048,0.1,0.072,0.1Zm-0.024-.1-0.1-.072-0.1.072,0.024,0.024,0.072,0.024Zm-0.432.192-0.216.144V57.422l0.12-.072,0.072-.048Zm-9.481.048,0.048-.048h0.072v0.1Zm9.217,0.264-0.288.216-0.12.024,0.12-.1,0.168-.1,0.072-.1h0.168l0.048,0.048h-0.168Zm1.536,0.288-0.024.144L684.886,58l-0.12-.1-0.072-.1,0.168-.072,0.1,0.144,0.024-.192,0.12,0.1v0.144ZM673.437,57.9l-0.024-.1,0.048-.072,0.024,0.072Zm0.408,0.144-0.1.024-0.072.072,0.048-.072,0.12-.048,0.12,0.024h-0.12Zm0.792,0.072-0.12.024-0.072.024-0.024-.072,0.072,0.048,0.144-.1,0.1,0.1Zm9.385,0.024-0.024-.1h0.144l0.024,0.072Zm21.36-5.352-0.36-1.392-0.264-.384-0.624-.72-0.433-.384-0.384-.192-0.432-.264-1.872-.576-0.48-.072-0.48-.024-0.5-.1h-0.7l-1.272-.264-0.888-.432-0.36-.336-0.1-.72,0.12-.648,0.288-.312,0.36-.264,0.384-.216,0.432-.1,0.768-.024,0.768,0.1,0.432,0.12,0.432,0.288,0.408,0.336,0.36,0.48L701.517,47l1.128-.1,0.648,0.048h0.48L704.206,47l0.456-.336,0.192-.408-0.1-.456-0.048-.456L704.038,44.1l-0.529-.72-1.584-1.1-1.344-.456-0.936-.192L697.8,41.58l-0.528.144-0.48.024-0.432.072-0.912.288-0.816.48-1.152.792-0.84,1.128-0.433,1.32L692.132,47l0.024,0.744,0.169,0.96,0.384,0.84,0.888,1.1,1.632,0.888,0.864,0.288,3.768,0.432,0.864,0.408,0.312,0.288,0.144,0.6-0.192.6-0.312.36-0.816.36-0.744.048L698.685,55l-1.224-.12-0.408-.216-0.408-.264-0.792-.864-0.48-.192-0.432.048-0.456-.072-1.848.1-0.433.192-0.192.5,0.072,0.48,0.1,0.48,0.145,0.432,0.456,0.888,0.336,0.312,0.312,0.36,0.84,0.528,0.336,0.36,0.456,0.216,0.48,0.144,0.936,0.336,0.984,0.168,1.9,0.048,0.48-.048,0.48-.12,0.48-.072,0.48-.192,0.432-.048,0.456-.216,1.633-.984,0.7-.72,0.24-.336L705,55.6l0.144-.432,0.144-.408,0.144-1.2Zm-7.945-10.681-0.048.216,0.072,0.264-0.072.144-0.024-.12-0.12-.312ZM699,42.276l0.144,0.048,0.048-.048,0.072-.144h0.1v0.12l-0.24.144-0.144.024-0.072-.1Zm-1.176-.12,0.168,0.12,0.288,0.12h0.168V42.54h0.216l-0.072.048-0.288.024-0.264-.048-0.024-.12-0.192-.072V42.156Zm-1.656.264,0.072-.1h0.24l0.144,0.072-0.168.144-0.216-.1-0.144.24,0.144,0.24L696,42.9l-0.048-.24Zm4.368,0.048,0.048,0.144-0.12-.024-0.024-.144Zm-4.92.1,0.1-.024v0.144h-0.12Zm3.816,0.024,0.216,0.024-0.12.12-0.144.048Zm1.416,0.1,0.1-.024,0.192,0.12,0.144,0.192-0.192-.1H700.8Zm-6.864.912,0.36-.144,0.432,0.024,0.024-.1-0.288-.192,0.1-.24,0.432-.048,0.216,0.144,0.24,0.024-0.072.144-0.144.048,0.1,0.216,0.264-.048-0.288.216-0.5.072-0.432.024-0.072.312-0.264.144-0.072-.264-0.1-.216Zm7.752-.552L701.805,43v0.1l-0.072.024V43.044Zm-6.48.192v-0.12h-0.384l0.1,0.168Zm7.272,12.7-0.792.576-0.432.168-1.416.456-0.5.048-1.872-.024-0.864-.216-0.936-.408-0.384-.24-0.6-.528-0.264-.432-0.1-.36h0.312l0.36,0.384,0.36,0.312,0.768,0.528,0.432,0.12,0.456,0.216,1.632,0.144,0.792-.024,1.392-.36,0.5-.24,0.84-.5,0.288-.48,0.264-.336,0.168-.456,0.072-.768-0.024-.7-0.168-.456-0.5-.672-0.84-.552-0.384-.192-1.44-.264h-0.432l-1.68-.168-1.152-.24-1.248-.624-0.384-.336L694.437,49l-0.192-.36-0.192-.5-0.12-1.2V46.309l0.576-1.392,0.84-.744,1.488-.792,0.936-.144,1.416-.048,0.96,0.192,0.408,0.216,0.912,0.36,0.384,0.336,0.36,0.24,0.288,0.408,0.1,0.408-0.36.048-0.768-.768-0.384-.264-0.5-.24-1.32-.408-1.944.12-0.5.144-1.248.672-0.672.672-0.24.408-0.192.48,0.024,1.536,0.12,0.432,0.528,0.768,0.36,0.288,0.5,0.216,0.864,0.312,0.528,0.1,0.432,0.12,2.448,0.288,1.464,0.36,0.432,0.264,0.7,0.648,0.288,0.312,0.336,0.888,0.024,1.512-0.36.864-0.312.48Zm-9.12-11.209,0.168-.312,0.1-.24,0.36,0.1,0.288,0.264-0.12.312-0.432.336-0.216.072,0.048,0.312-0.264.048,0.048-.12-0.024-.36,0.288-.192-0.192-.1-0.264.216-0.1-.144Zm-0.168-.48,0.1-.024,0.024,0.12-0.144.024Zm6.5,0.384H699.6l-0.1-.024-0.048-.168,0.12,0.072,0.168,0.024v0.1Zm-2.832.384-0.216-.168h-0.12l0.144-.144,0.264,0.12Zm3.12,0.024h-0.12l-0.024-.144,0.144,0.024v0.12Zm0.36,0V44.893h0.1l0.024,0.144h-0.12Zm-4.056.264-0.216-.192,0.072-.12,0.144,0.144V45.3Zm-0.792.624-0.048-.024-0.1.024,0.024-.192,0.144-.24,0.168,0.048-0.144.072-0.144.12Zm-2.88.336-0.024-.1,0.072,0.024,0.12-.048L693.045,46l0.024-.168h0.168l-0.024.144-0.144.072-0.12.24Zm3.192,0.192,0.048,0.12-0.336.12h-0.312l-0.24-.144,0.36-.1h0.48Zm-3,.336,0.24-.072,0.1-.192,0.144,0.1-0.048.144h-0.192l-0.024.216L693,47.2l-0.072-.048H693L692.9,47l-0.168-.12Zm2.424,0.288,0.024-.192,0.36-.072,0.12,0.24,0.12,0.168-0.048.144-0.168.072,0.048,0.1,0.048,0.048-0.1-.048-0.048-.1,0.1-.168-0.144-.048Zm0.24,0.048,0.024-.144-0.192.048Zm-2.448.384-0.12-.072,0.1-.12,0.168-.12,0.192,0.12-0.144.24Zm2.088-.192h0.168l-0.1.168-0.216-.024Zm0.264,0.312,0.144,0.048-0.024.12-0.144-.048Zm-2.448.24h-0.168l0.072-.144h0.168Zm2.688,0.264h-0.216v-0.12l0.1-.1,0.168,0.192,0.264,0.1,0.12,0.192-0.1.168-0.24-.1-0.192-.144,0.144-.048Zm-2.232.12,0.048,0.048-0.024.072-0.048-.024Zm2.976,0.408,0.168,0.24,0.12,0.264,0.12,0.168-0.12-.144-0.216-.24-0.1-.216-0.216.1-0.12-.1,0.1-.1Zm0.96,0.12,0.12,0.144,0.144,0.288h-0.12l-0.144-.024V49.117l-0.048-.168Zm-3.7.72-0.048-.12-0.1-.1-0.072-.144L693.525,49l0.264-.12,0.144,0.216-0.24.168-0.048.12,0.072,0.024,0.024,0.048Zm4.176-.552,0.288,0.144-0.024.144-0.144-.1,0.024-.048h-0.168Zm-3.84.792h-0.144v-0.12h0.144v0.12Zm0.408,0.432-0.1-.024,0.024-.12,0.12,0.048Zm0.216,0.312V50.341l0.192-.048,0.024,0.144Zm1.776,0.5-0.216.024-0.072.048,0.192,0.144,0.072,0.1-0.264-.024-0.216-.168-0.072-.24,0.192-.024,0.024,0.168,0.144-.048,0.192-.1,0.12,0.072Zm1.776,0.144-0.1.048v-0.12l0.1,0.024v0.048Zm5.52,0.144h0.072l-0.024.072h-0.168Zm-5.544.24h-0.12l0.024-.12h0.1v0.12Zm0.744,0.048V51.4l0.1,0.024,0.048,0.12Zm0.888,0-0.072-.1,0.072-.024,0.12,0.144Zm2.088,0.912-0.072-.024-0.12-.048v-0.12l0.168-.024-0.048.072Zm2.449,0.312,0.168,0.072h0.168l-0.1.024-0.072-.024-0.144.072-0.12-.024Zm0.5,0.816-0.168-.024,0.024-.12,0.168,0.024Zm-0.216.264,0.1,0.12v0.048l-0.168-.024-0.072-.168Zm-9.5.192,0.192,0.12,0.024,0.216-0.216-.1v-0.24Zm9.169,0.216,0.072-.12,0.192,0.072-0.12.1-0.144-.024h-0.1Zm0.48,0.144-0.072.024v-0.12h0.072v0.1Zm-9.193.12-0.048.048-0.072.048Zm8.449,0.12,0.144-.048v0.216h-0.144V54.661Zm0.5,0.6-0.168.264-0.144.312-0.12.12-0.024-.12-0.024-.072-0.216.048-0.145-.144-0.024-.336h0.217v0.216l0.168,0.072,0.12-.264,0.048-.288L704.4,55l0.216,0.144Zm-4.3-.1h0.192l-0.072.144-0.168.024Zm-0.528.312h0.12l0.072,0.144,0.072,0.048v0.072l-0.048-.072-0.072-.072-0.1.072-0.12-.048Zm-0.384.072,0.024,0.216h-0.12l-0.024-.144ZM698.9,55.6v0.1h-0.1l-0.024-.072Zm4.392,0.216-0.024.12-0.12-.024,0.048-.1h0.1Zm-5.832.12,0.12-.072,0.048,0.1-0.072.12-0.12.048-0.072-.024h0.12Zm0.72-.024h0.1v0.12l-0.12-.024Zm5.5,0.672h-0.336l-0.312-.168,0.288-.192,0.36,0.12v0.24Zm-0.456.384-0.168.048,0.072-.216,0.264,0.072Zm-0.72.072-0.144.048,0.048-.192h0.12Zm-0.576.12,0.048-.072,0.216-.024-0.072.12Zm0.216,0.384-0.12-.1-0.168-.1-0.168.144-0.072.168,0.168,0.048,0.072,0.048-0.12.024-0.12-.072-0.36.1-0.336.12-0.288.168-0.1-.024-0.192-.024,0.048-.12,0.048-.1-0.12-.168,0.384,0.024,0.552-.024,0.24-.168-0.024-.144-0.048-.1,0.1,0.048,0.144,0.048h0.192l0.192,0.048h0.144l0.072,0.12Zm-3.768.264,0.024-.072,0.1-.048,0.024,0.1Zm1.344,0.336H699.5l0.1-.336,0.168,0.048Zm-0.528-.072-0.072-.168,0.144-.024,0.048,0.192h-0.12Zm-2.16.072-0.1-.024h0.1l0.144-.048Zm0.96,0.168,0.024-.192,0.048,0.024,0.048,0.168h-0.12Zm0.888,0.12-0.12-.024-0.048-.1,0.168-.024V58.43Zm27.96-6.745-0.048-.5V50.7l0.072-.5-0.024-.912,0.048-.528L726.813,46.4l0.12-1.992-0.1-.456-0.048-.456,0.1-.48-0.048-.48-0.24-.48-0.744-.24-1.224-.024-0.768.072h-0.48l-0.72.216-0.192.7,0.048,2.616-0.1.408V47.2l-0.264.48-0.408.24h-0.96l-0.432-.048-2.328.024-0.5-.216-0.192-.456v-1.44l0.048-.432-0.072-2.376,0.024-.408-0.288-.5-0.745-.24-1.416.048-0.48-.048-0.456.048-0.744.216-0.264.408-0.072.528v0.456L712.916,44l-0.072.456,0.12,1.44-0.072.528,0.048,0.408-0.1.48,0.1,1.464-0.048.5v1.392l0.072,0.456-0.048.744,0.048,0.552-0.072,1.128,0.048,0.528-0.072.48L712.94,55l-0.048.48,0.048,2.448,0.192,0.5,0.552,0.216h0.456l0.744-.072,0.7,0.024,0.5,0.072,0.505-.048,0.528-.216,0.192-.48,0.024-.48-0.072-.528,0.048-.432-0.048-.48,0.048-.456-0.024-.528,0.048-.5-0.072-1.9,0.24-.5,0.48-.288h0.5l0.432,0.048h1.416l0.48-.048,0.48,0.048h0.456l0.432,0.24,0.24,0.48,0.072,1.464-0.072.456,0.1,1.7-0.1.72,0.072,0.936,0.24,0.5,0.48,0.24,0.48-.048,0.72,0.072h1.656l0.48-.264,0.264-.456,0.1-.984V53.077l-0.1-.912Zm-0.36-7.537-0.024.144-0.072.12,0.024,0.12-0.1.168,0.072,0.048-0.048.048,0.048,0.072v0.072l-0.312.144-0.168.24-0.048-.024-0.36.24-0.1-.12,0.12-.168-0.072-.168,0.24-.288-0.336-.192,0.144-.264,0.24,0.216,0.024-.288-0.384-.024-0.144-.408-0.192-.384-0.144-.192-0.24.048-0.024.072-0.048-.072h-0.144l-0.12.072,0.048,0.12-0.288-.1-0.12-.264-0.072-.1h-0.048l-0.1.144,0.216,0.24,0.144,0.288-0.288.072,0.048,0.192,0.12,0.12,0.12,0.264-0.192.408-0.024.216,0.1,0.12,0.168,0.432-0.192.192-0.408-.144-0.264.192-0.192.12,0.12,0.048,0.192,0.168,0.12-.216-0.048-.12,0.048-.072,0.168,0.12,0.384,0.1,0.024,0.456-0.168.12V46.333l-0.048-.048-0.216-.192-0.12.1,0.216,0.456,0.024,0.264,0.12,0.048-0.1.048-0.144-.024,0.1,0.168,0.216,0.336-0.12.216-0.1-.1-0.048-.12-0.024-.264-0.24-.1v0.192l-0.144.048,0.024-.216L723.405,47l-0.264-.24-0.168.12,0.168,0.24-0.216.048,0.024,0.36,0.12,0.264h0.1l0.048-.144,0.072-.12,0.024,0.12,0.024,0.168,0.336,0.072,0.048,0.24,0.024,0.1h-0.12l0.024-.072-0.288-.216-0.312-.144-0.384-.048-0.048.336-0.048.144-0.024-.144-0.072-.144-0.024-.192,0.216-.264,0.072-.5,0.168-.408-0.1-.072V46.357l0.12-.1H723l0.072-.1-0.24-.12,0.192-.144,0.072-.072-0.072-.072-0.048-.168,0.216-.024,0.168-.1-0.072-.072-0.168.072-0.072-.144,0.12-.072-0.024-.048,0.024-.072,0.216-.072v-0.1l-0.312-.192-0.048-.216,0.072-.168,0.024-.144L723,44V43.932l0.144-.024,0.168-.048,0.336-.336,0.048-.24-0.072-.024-0.144.312-0.288.168-0.168-.192-0.1-.072,0.024-.1L723,43.092l0.168-.144L723,42.876l0.12-.216,0.288,0.168,0.12-.024-0.144-.192-0.072-.264-0.024-.072,0.144-.1,0.168-.048,0.192-.1,0.024,0.024,0.192-.072,0.168,0.36,0.24-.1,0.072-.12-0.024-.1,0.1,0.072h0.456l0.24,0.072,0.432-.144,0.168,0.384L726,42.348h0.1l-0.048.1L726,42.492l0.216,0.048,0.1-.192-0.072-.144,0.192,0.168,0.048,0.312h-0.288l0.1,0.144-0.1.168,0.288,0.24,0.048,0.192-0.024.12,0.072,0.336Zm-2.664-1.968,0.12-.072-0.12-.048-0.12.024-0.048.048Zm0.168,0.144-0.048-.168-0.048.12,0.024,0.1Zm-0.288.048-0.1-.144-0.072.216,0.192,0.1Zm-8.833-.048L715,42.444l0.048-.024L715,42.468l-0.144-.048h-0.1Zm8.9,0.216,0.1,0.12h0.24l-0.12-.072Zm0.144,0.5L724.053,43V42.852l-0.072.048Zm1.32-.072,0.12-.048-0.216-.048ZM726,43.236l-0.1-.288-0.1.12Zm-12.073-.216,0.024,0.048L714,43.188l-0.072-.024-0.1-.1Zm10.657,0.168,0.1-.1-0.072-.024Zm1.9,0.264v-0.1l-0.144.072Zm-0.36.072,0.024-.072h-0.1L726,43.524h0.12Zm-1.176,8.569-0.048.5,0.072,1.392-0.072.552,0.1,1.392-0.024.528-0.192.432h-0.24l-0.1-.48,0.048-.48-0.072-.408V55l0.048-.432-0.024-.48,0.048-.456-0.072-.432-0.048-1.848,0.072-.528-0.216-.432-0.5-.264h-2.856l-0.5.072h-0.528l-0.456-.072-0.408.048-0.456-.024-0.528.024-0.456-.024-0.7.048-0.745-.048-0.408.216-0.264.48v1.416l-0.048.48v0.432l0.072,0.5-0.072,2.784-0.1.432L715,56.942l-0.192-.5,0.1-1.44-0.072-.48L714.812,53.1l0.1-.48-0.048-.5v-6.7l-0.072-.48,0.048-.456v-0.5L715,43.524l0.24,0.024,0.192,0.48-0.12.984,0.072,0.48,0.024,0.5-0.024.48-0.072.48,0.12,0.48-0.1,1.008V48.9l0.24,0.5,0.768,0.216,1.681-.024,0.432,0.048,1.872-.024,0.528,0.048h1.392l0.48-.048,0.456,0.048,0.48-.048,0.432-.192,0.336-.528-0.048-.48,0.048-2.928-0.048-.528,0.048-.936,0.168-.456,0.24-.024,0.072,0.96-0.024.432,0.072,0.96-0.024,1.464-0.072.48,0.048,0.5-0.024.432,0.072,0.456-0.048.48,0.072,0.48,0.024,0.528-0.1.408Zm0.816-8.473-0.168.048,0.12,0.1Zm-12.5.072-0.024.1-0.024-.12Zm3.241,0.12h0.048l-0.073.024-0.048-.1Zm9.552,0.1,0.216,0.288L726.213,44Zm-0.312.048-0.144-.024,0.1,0.12,0.072,0.024Zm-9.553.192,0.024,0.12-0.1.048-0.024-.12Zm-2.712.072,0.072,0.1-0.144-.048-0.024-.1ZM723.525,44.6l-0.1-.048,0.072,0.12Zm2.4,0.1,0.144-.048-0.1-.072Zm-9.24.072-0.048.048-0.1.072,0.072-.12h0.072Zm6.216,0.192,0.12,0.048-0.072.072-0.1.024Zm0.912,0.12,0.048-.072-0.144-.048Zm1.848,0.072,0.072,0.12,0.1-.048-0.048-.12Zm0.312,0.528-0.216.24,0.12,0.168,0.216-.024L726.165,46l-0.072-.24,0.024-.288-0.024-.144,0.1-.072,0.1-.12,0.072,0.12-0.144.048-0.048.1,0.144,0.144,0.024,0.312-0.12.144-0.048.1,0.072,0.024,0.072,0.072h-0.432l-0.288.048V45.853l0.264-.36,0.1,0.048-0.072.024Zm-2.5-.312,0.072-.12-0.144.024Zm0.264,0.12,0.168,0.1,0.1-.24-0.1-.1-0.072.1ZM722.925,46.5l0.12-.12-0.072-.12-0.1.12Zm0.432,0.1-0.12.048,0.144,0.024Zm0.672,0.168-0.1-.072,0.048-.072,0.048,0.072v0.072Zm2.184,0.336v-0.12l0.12-.192v-0.12l0.1,0.264Zm-0.312-.072,0.048-.12L726,47.053l0.192,0.072L726,47.317Zm-0.216-.048,0.1,0.144-0.216.024-0.072-.168h0.192Zm-9.337.384-0.072.024-0.1.024,0.1-.072Zm9.553,0.576,0.024-.144-0.048-.1h0.1l0.12-.144-0.048-.1,0.072,0.024,0.072,0.12,0.072,0.216-0.216.24Zm-0.456-.1,0.024-.144,0.048,0.024,0.024,0.144Zm-2.664.312,0.048-.168,0.072-.024,0.12,0.048,0.024,0.144-0.072.072-0.12.024Zm-2.256.168,0.072-.072-0.048.072-0.12.072Zm1.224-.072,0.072,0.12-0.168.024-0.048-.1Zm-1.7.12,0.048,0.1,0.072,0.048-0.12.024-0.144-.048-0.024-.192Zm2.4,0.048h0.12l0.072,0.1h-0.144Zm3.48,0.024-0.048.072-0.072-.048Zm-4.536.288,0.192-.144,0.216,0.024-0.144.12-0.216.072-0.12.024Zm1.008,0,0.1-.048,0.168-.048,0.144,0.072-0.216.12-0.144-.024h-0.1Zm-1.344-.024,0.12,0.048-0.144.048-0.12-.072Zm2.016,0.024h0.144V48.8l-0.12.024Zm-3.456.072v0.048l-0.048.12-0.048-.1Zm2.352,0.048,0.1-.048-0.1.1v0.144l-0.168.024-0.048-.168,0.168-.024-0.048-.072Zm3.96,0.168-0.36-.048,0.072-.144,0.6,0.072-0.024.072,0.024,0.048h-0.312Zm-4.44.12-0.1-.048,0.048-.072,0.024,0.048Zm-0.792.1,0.12,0.048,0.072-.024,0.048-.168,0.072-.048,0.024,0.24-0.216.024-0.12-.048-0.072-.048Zm-6.817.24,0.072-.024,0.024,0.072-0.072.024Zm12.337,0.168,0.048-.1-0.048-.024-0.048-.048h0.048l0.1,0.12Zm-13.009-.1h0.12v0.144l-0.144-.024Zm0.936,0.144,0.144,0.1-0.168.12-0.1-.12Zm-0.816.456-0.1-.024,0.024-.1,0.1,0.024Zm0.648-.048,0.1-.024-0.048.144,0.1,0.168-0.072.192L714,50.413l-0.072-.216-0.048-.1h0.1Zm12.193,0.168-0.1-.048,0.12-.048Zm-8.808.5,0.024-.1L717.5,50.7l-0.048.12Zm1.392,0.1-0.144-.048v-0.1l0.1-.024,0.072-.024-0.144.1Zm2.16-.048,0.024-.1h0.1l-0.024.072Zm5.136,0-0.072.048H725.9l-0.072-.048-0.048-.048h0.1l0.048,0.048,0.12-.072v0.072Zm-12.6.1-0.1-.024-0.1-.048h0.12Zm2.712,0.264-0.048-.144,0.168-.1,0.1-.048-0.1.072-0.072.12,0.192,0.048,0.145,0.168-0.169-.048-0.288.072-0.048-.048,0.1,0.024,0.144-.048Zm1.417-.168-0.1-.024,0.072-.1,0.12,0.072Zm2.856,0.1-0.144-.12,0.144-.072-0.048.072,0.072,0.1,0.048,0.072Zm-2.3,0h-0.048l0.024-.12,0.1,0.048Zm-4.441.072v-0.1l0.072-.072,0.168,0.1L714,51.277l-0.072-.024-0.072.072-0.144.1,0.12,0.12h0.12l-0.144.1-0.12-.144,0.024-.072-0.048-.1,0.072,0.024,0.12-.048V51.229Zm8.041,0.024-0.048-.024-0.072-.1-0.048-.072,0.072,0.024,0.1,0.12v0.048Zm-0.648.12-0.048.024-0.024-.072,0.072-.072v0.12Zm-6.937.072,0.048,0.048-0.072-.048-0.048-.048Zm2.064,0.216,0.12-.072,0.024,0.1-0.1.1Zm-2.256.6,0.12-.072-0.024-.1-0.072-.1,0.12-.072,0.192-.024,0.024,0.168H714.14l-0.024.12,0.048,0.168-0.048-.048-0.144.144L714,52.549l0.216-.024-0.024.192-0.072.144-0.216.168-0.144-.072-0.144.336-0.168.264-0.072-.024,0.024-.312,0.408-.312,0.144,0.048,0.024-.144L714,52.6l-0.1-.216-0.24-.024-0.168-.1v-0.1l0.168,0.072Zm-0.672-.24-0.024.048-0.048-.072,0.048-.072Zm2.784,0.48-0.144.072-0.12-.216,0.048-.216,0.048,0.192Zm0.408,0.288-0.12-.024-0.024-.072,0.144-.024,0.049-.048-0.121-.048-0.1-.1,0.12,0.048,0.121,0.1,0.1,0.048h0.072l-0.072.072-0.048.1-0.072.024Zm-2.76-.048-0.072-.12-0.144-.048-0.024-.048,0.1,0.024,0.072,0.072,0.12-.072-0.072.072Zm12.193-.12-0.048-.024h0.072l0.024,0.048,0.024,0.072Zm-12.409.12v0.072h-0.048V52.741Zm2.76,0.36,0.241,0.024-0.193.144-0.24.072-0.12.024v-0.1Zm-2.064.624,0.048,0.216-0.288-.192-0.408.216-0.12-.144,0.312-.312,0.432-.216,0.1,0.12-0.144.048Zm1.68-.216,0.168,0.144,0.072,0.072h0.24l0.048-.048,0.048,0.072-0.024.072-0.072-.072-0.216.1-0.216-.1-0.048.072-0.1.1v-0.12l0.048-.12-0.072-.1h-0.072l0.072-.024Zm0.913,0.552-0.12.24-0.144-.072,0.1-.24,0.072-.1-0.048-.168-0.144-.1-0.073.024,0.073-.048,0.216,0.048,0.1-.024-0.072.12v0.144l-0.048.12Zm-0.961.1,0.048-.144h0.144l-0.072.1Zm-2.16.072-0.192-.048,0.072-.144,0.192,0.048Zm0.552,0.12-0.1.048v-0.1l0.072-.072Zm-0.48,0,0.168,0.072-0.048.144-0.12-.1V54.3Zm2.712,1.056-0.048.24-0.144-.024,0.1-.288-0.168-.1-0.072.12v0.168l-0.1.024-0.192-.312,0.1-.168-0.048-.408,0.168-.144,0.288,0.312-0.216-.048h-0.072l-0.024.072,0.048,0.12,0.12,0.1h0.288Zm-2.184-.288h-0.168l-0.288.024H713.66l-0.216.192-0.168.048-0.024-.144,0.264-.216,0.288-.288L714,54.613l0.048,0.072,0.072,0.024,0.12-.12,0.1,0.1-0.12.24Zm-0.96-.384,0.1-.048-0.024.168-0.192-.072Zm3.241,0.168,0.072-.192,0.048,0.12,0.024,0.144Zm-2.569.024,0.048-.144-0.12.072Zm2.184,0.312,0.1-.1-0.072-.072-0.12.1Zm-2.112.216h-0.1l0.048-.1h0.048v0.1Zm-0.312.1-0.12.192-0.24-.1-0.1-.024h0.1l0.168-.1Zm0.384,0.048,0.048,0.072-0.1.024-0.048-.1h0.1Zm1.968,0.048-0.12.144-0.12.1h-0.072l0.048-.024V55.741l0.048-.168Zm-2.448,1.416V56.846l-0.144-.12-0.048.12-0.12.192,0.072,0.024,0.072,0.168-0.264.024,0.048,0.1,0.168,0.072,0.144-.024,0.024,0.1-0.216.1-0.144-.192-0.048-.192,0.1-.216,0.048-.192,0.024-.264,0.312-.144-0.1-.264-0.144.072-0.12.024,0.048-.048,0.072-.1-0.048-.072,0.192-.168,0.24-.072-0.144.192-0.264.048,0.168,0.072L714,56.2l0.168,0.312L714,56.63l-0.072-.192-0.192.216-0.1.168,0.7,0.048,0.024,0.072-0.024.12-0.264-.12-0.24.216Zm0.456-1.2,0.1,0.12-0.072.048-0.1-.024Zm2.328,0.5V56.173l0.1,0.048-0.024.168v0.072Zm-0.912,0,0.072-.024v0.1l-0.048.024ZM715.8,57.11V56.918l-0.048-.072H715.6v-0.12l0.1-.072,0.072-.12,0.072,0.048-0.1.1-0.024.1,0.12,0.144,0.072,0.12Zm0.648-.48-0.024.1-0.072-.072-0.144-.1,0.1,0.024Zm0.121,0.6,0.12,0.048-0.12.048h-0.241l-0.12-.144,0.192-.24,0.1-.144,0.216-.048-0.1.12-0.169.24Zm-0.913.168-0.072-.024-0.048.048h-0.1l-0.216.072-0.144.024-0.1-.024-0.168.024-0.12.168-0.12.264-0.144-.12,0.048-.168,0.192-.168-0.192-.1-0.288.216-0.048.168-0.072-.024-0.168.192-0.168-.12V57.662l0.24-.144-0.1-.192v-0.1l0.1,0.048h0.336l0.336-.144,0.048,0.144,0.144,0.072L715,57.422l0.192,0.024,0.192-.12,0.072-.1,0.072-.168,0.072,0.12,0.048,0.168,0.048,0.12Zm0.528,0.672-0.12-.12-0.1-.072,0.072-.12,0.048-.192,0.192-.048-0.024.12-0.1.192,0.048,0.144,0.1,0.072Zm-0.672-.216-0.048.12-0.024.048-0.1-.264,0.216-.144,0.024,0.072Zm-0.624.072,0.048-.1,0.168-.144,0.1,0.1-0.168.1Zm-0.432.264-0.12-.048-0.1-.072,0.12-.024,0.168,0.072,0.024,0.072h-0.1Zm0.48,0.12-0.192-.216,0.024-.024v0.024h0.168l0.24-.048,0.072,0.168Zm36.673-10.249-0.6-1.8-0.456-.888-0.528-.72-0.672-.744-0.7-.6-0.552-.384-0.72-.312-0.36-.264-1.848-.576-1.392-.24-0.648-.024-2.544.36-1.8.672-0.36.264L738,43.02l-0.816.6L736,44.989l-0.744,1.272-0.36.912-0.408,1.848-0.072,1.944,0.072,0.5,0.12,0.432,0.048,0.456,0.216,0.912,1.1,2.184,0.288,0.288,0.312,0.384,0.36,0.336,0.264,0.312L738,57.4l1.872,0.96,0.7,0.24,0.528,0.048,0.864,0.192,0.5,0.048,1.344-.024,1.44-.192,1.8-.6,0.792-.432,0.36-.288,0.456-.216,0.672-.576,0.312-.432,0.336-.336,1.056-1.608,0.36-.912,0.192-.912,0.024-.432,0.12-.48,0.024-.5,0.1-.7-0.072-1.2Zm-6.96-5.856,0.024,0.1,0.1,0.168,0.216,0.048,0.024,0.1-0.072.024-0.192-.144-0.192-.1Zm0.792,0.24L745.7,42.4l0.024,0.288-0.312-.048H745.2Zm0.528,0.432,0.1,0.12,0.048-.312-0.1-.288,0.1,0.024,0.12,0.1,0.336,0.024,0.216,0.024,0.072,0.192-0.336.24,0.024,0.384-0.216-.24V42.852l0.072-.168-0.144.1-0.12.288,0.12,0.192-0.12.12-0.24-.1,0.1-.216-0.12-.192h0.1Zm-5.16-.336,0.048,0.12-0.12-.024-0.1-.1h0.168Zm0.456,0.072,0.144,0.144-0.144.12-0.144-.144Zm3.288,0.288,0.144-.1,0.024,0.048-0.048.168-0.216-.168Zm0.888-.048,0.144,0.048,0.048,0.072-0.216.072L745.2,42.9Zm-6.265.312,0.072-.12,0.312,0.312-0.1.192-0.1-.144,0.048-.1-0.24.1-0.1-.288Zm8.065,0.528,0.072-.144V43.476l-0.072-.1,0.1-.192,0.192,0.024V43.5l-0.168.192,0.048,0.072,0.048,0.144-0.168.144-0.168-.168Zm0.936-.144,0.144-.024,0.144,0.192-0.288.384-0.384.144-0.048-.12,0.24-.048-0.192-.384-0.072-.336Zm0.288,11.089-1.008,1.008-0.384.312-0.408.24-0.912.408-0.48.144-0.984.192-0.48.048-0.6.072-1.344-.12-0.84-.216-0.937-.36-0.36-.216-0.5-.24-0.816-.576-0.264-.36-0.384-.432-0.48-.744-0.648-1.416-0.1-.456-0.048-.5-0.1-.456V49.5l0.216-1.008,0.048-.432,0.144-.528,0.192-.432,0.552-.912,0.528-.7,0.456-.36,0.312-.312,1.705-.96,0.408-.144,1.056-.24,1.176-.1,0.648,0.024,0.456,0.1,0.528,0.048,1.8,0.72,1.152,0.84,0.7,0.7,0.24,0.456,0.336,0.432,0.216,0.36,0.456,1.416,0.12,1.728-0.072,1.272-0.072.456-0.192.5-0.1.5Zm-1.92-11.089,0.12,0.1-0.144.072-0.12-.192,0.144-.144v0.168Zm1.488,0.144,0.1,0.144,0.168-.024,0.072-.144-0.048-.144-0.12.048Zm-9.217.048,0.336,0.048,0.024,0.072-0.24.024-0.216.192-0.12-.12Zm9.889,0.144,0.216,0.144-0.168.144-0.024.144-0.216-.168Zm0.336,4.176-0.216-.432-0.12-.408-0.792-1.272-0.312-.312-1.08-.816-0.456-.264-1.344-.408-0.888-.168-0.7-.024-1.608.12-1.753.672-1.152.864-0.888,1.2-0.192.384-0.336.936L736.916,49.5l0.024,1.92,0.168,0.456,0.072,0.456,0.12,0.48,0.312,0.408,0.216,0.48,0.216,0.36,0.648,0.744,0.648,0.6,0.456,0.216,0.312,0.192,0.457,0.216,0.984,0.336,0.912,0.12,0.672,0.048,0.672-.048,1.416-.288,0.384-.12,1.32-.672,1.32-1.368,0.288-.408,0.48-1.248,0.072-.456,0.192-.48,0.072-.5-0.1-1.968Zm0.1-3.792,0.072,0.144,0.048,0.192,0.1,0.12-0.192-.072-0.168-.264Zm-0.72.048-0.024.216h-0.168l-0.024-.216h0.216Zm-5.688.192,0.168,0.024,0.072-.12,0.1-.072,0.024,0.192,0.12,0.12-0.072.072-0.048-.048-0.024-.1-0.048-.1-0.216.168-0.144-.024Zm-1.176-.024,0.48,0.144,0.408-.168,0.192,0.288,0.024,0.192-0.1.1-0.072.144-0.192.1h-0.168l-0.072.072v-0.12l0.168-.048,0.216-.168,0.048-.192-0.12-.168L742.1,44.7l0.072,0.144,0.072,0.12-0.144-.024-0.192-.192-0.1.288-0.024.216-0.168-.216V44.845l0.048-.192h-0.336l-0.1-.072Zm7.536,0.768,0.048,0.12-0.144-.048-0.024-.12-0.12-.216-0.24-.144-0.024-.048v-0.12h0.1l0.288,0.1v0.384Zm-3.984-.432,0.192-.12,0.24,0.24-0.024.12-0.192-.048-0.216.1V44.821Zm-1.3.144V44.749l0.288,0.048,0.048,0.336-0.168.048-0.336.12-0.336-.144-0.288-.024-0.1-.1,0.072-.168,0.432,0.1h0.384Zm1.032-.168,0.12,0.1-0.168.12-0.144-.144Zm0.96,0.12,0.048,0.048,0.024,0.1,0.072,0.12,0.168-.048v0.1l0.072,0.24,0.168-.216,0.144,0.048,0.024,0.288-0.144.192-0.024-.072h-0.168l-0.072.24h-0.216l0.072-.1V45.637l-0.12-.288-0.24.12-0.192-.1,0.1-.192,0.216-.024,0.12-.1Zm-5.425.264,0.169-.24,0.312,0.1L741,45.109l-0.144.1-0.24.24-0.217.048-0.048-.24Zm9.169-.12,0.216-.072,0.048,0.456,0.168,0.288-0.048.048,0.12,0.168L750,46.117l-0.12.12,0.144,0.12-0.048.12-0.072.168,0.144,0.264V47l-0.144-.048-0.24-.144-0.168-.264-0.048-.1,0.072,0.072,0.264,0.12,0.144-.288-0.072-.024-0.288-.048,0.072-.216,0.144-.144h-0.288l-0.1.024-0.072-.048,0.072-.048,0.12,0.024,0.12-.288-0.288-.36Zm-8.256.048,0.024,0.072,0.072,0.048,0.1-.072,0.1,0.1-0.048.12-0.072.048-0.072-.1h-0.1l0.048-.048-0.024-.1-0.048-.024-0.048-.048h0.072Zm-4.753.264H736.8l-0.024.264-0.24.024V45.373Zm2.976,0.168,0.216,0.12-0.168.1-0.216-.024-0.024-.024Zm7.249,0.144,0.144-.1h0.144l0.048,0.144-0.12.144v0.1L746.9,45.9l-0.144-.048V45.685Zm-7.345,2.064,0.576-.768,1.2-.816,0.312-.12,0.936-.24,0.672-.048,1.152,0.144,0.432,0.1,0.432,0.192,0.744,0.528,0.936,0.984,0.288,0.912,0.216,0.456,0.072,0.432-0.048,1.464-0.192.888-0.168.432-0.264.432-0.144.36-0.336.384-1.152.792-0.432.12-0.36.168-0.48.1h-1.32l-0.528-.072-0.864-.36-0.384-.216-0.649-.528-0.312-.336-0.336-.456-0.12-.384-0.216-.432-0.192-.888V49.5l0.12-.432,0.072-.456,0.192-.432ZM746.685,46l0.072,0.144,0.12,0.12h0.192l0.144-.288v0.264l0.168,0.024,0.024,0.144-0.144.048,0.048,0.312-0.168.1V46.5l-0.24-.1-0.144-.072-0.072-.12-0.1-.144Zm-0.12.384-0.12.1-0.168-.1,0.144-.1Zm4.056-.1,0.048,0.24-0.192.024-0.1-.168-0.024-.1h0.264ZM739,46.477l0.216,0.24-0.168.12L739,46.909l-0.072.024V46.861l-0.12-.12Zm9.025,0.336,0.144,0.264,0.192,0.144-0.1.144,0.072,0.192,0.024,0.288-0.1.216-0.12-.024-0.144-.048V47.773l-0.216.144-0.072.264-0.216-.072,0.1-.432-0.12-.072,0.144-.024,0.216,0.1,0.24-.144,0.144-.168-0.1-.192-0.192-.072-0.216-.144,0.12-.216-0.048-.12Zm-0.36-.144,0.048-.024-0.024.024-0.024.072V46.669Zm2.688,0.216,0.168,0.168,0.144-.216,0.168,0.1v0.384h-0.432L750.357,47l-0.12.024-0.024-.144h0.144Zm-2.712.192-0.048.288v0.072l-0.336.1-0.168-.168L746.9,47.2l0.48,0.12,0.12-.168Zm3.624,1.632-0.24.24-0.12.1-0.048-.144,0.216-.24-0.1-.168-0.12-.072,0.192-.216-0.192-.12-0.216-.048,0.024,0.12,0.048,0.648-0.1.456-0.384-.072,0.072-.1,0.264-.1-0.216-.432,0.144-.36,0.168-.048-0.144-.072-0.168-.048-0.336-.5v-0.12l0.048,0.1,0.168,0.1h0.384l0.12,0.264,0.216-.12,0.168,0.072,0.288,0.336Zm-0.5-.768h0.216l-0.024-.192-0.1.072Zm-12.625.072,0.168-.144,0.072,0.264v0.432l-0.192.072-0.1-.12,0.144-.216-0.12-.072h0.024V48.013Zm-2.232,0,0.024,0.1-0.024.072,0.048,0.12-0.1.048v-0.12l-0.024-.12Zm1.656,0.288,0.1-.072,0.1,0.024-0.048.048-0.144.072-0.12-.072h0.12ZM738,48.277l0.12-.048-0.1.168h-0.1Zm10.465,0.408,0.24-.192,0.1,0.072-0.072.024-0.192.168-0.1.024Zm-12.793-.144,0.1,0.072-0.1.216-0.144-.192-0.048-.048Zm2.256,0.168-0.144.024-0.072.288-0.12-.168-0.024-.168,0.12-.1,0.1,0.024ZM747.957,48.9l-0.168.1V48.781l0.168-.1V48.9Zm-12.433.36,0.168-.12-0.1.192-0.192.024Zm1.824,0.264,0.1-.24,0.24,0.072,0.144,0.168-0.048-.288h0.168l0.024,0.24,0.072,0.072V49.6l0.24,0.024-0.24.264-0.48.216-0.144-.168-0.1-.192,0.12,0.072,0.1-.12Zm11.329,0.168-0.288.288-0.216-.072,0.048-.216,0.216-.432,0.408,0.024,0.1-.024v0.12l-0.1.1,0.144,0.192Zm2.5,0.24-0.1-.168-0.12-.12-0.024-.192,0.168-.144,0.048,0.216-0.144.072,0.192,0.072,0.048,0.264h-0.072Zm-0.672-.456V49.4l0.1,0.1,0.1,0.024-0.1.024Zm-12.481.336,0.072-.072-0.216-.072-0.24-.024,0.24,0.1Zm12.577,0,0.12,0.048,0.12,0.312-0.168.1-0.024-.192-0.1-.168-0.072-.12Zm-12.169.336-0.144.072-0.1-.1-0.072.12-0.216.168-0.072-.12,0.216-.12,0.24-.192Zm10.417,0.72-0.168-.072-0.168.024,0.1-.24-0.024-.336,0.216-.168,0.144,0.024,0.024,0.432Zm-0.864-.744,0.168,0.048-0.12.12h-0.1Zm-12.649.144-0.192.1-0.1-.12,0.312-.072Zm1.9,0.12,0.1-.168,0.1,0.168,0.36,0.216,0.264,0.1,0.072,0.192-0.12.24-0.144-.216-0.144-.048-0.192.072,0.024-.072-0.168-.144Zm10.633,0.072,0.192-.024,0.216,0.1v0.144h-0.24l-0.192.1-0.072-.12Zm4.489,0.552,0.072-.12,0.024-.072Zm-14.93,0,0.072-.024-0.048.072Zm0.168,0.264-0.12-.12-0.024-.048,0.048,0.024h0.144l0.048,0.12ZM748.8,51.469l-0.12-.144-0.168.1-0.216.192,0.048,0.144,0.288-.12,0.1,0.048-0.024.048-0.072-.1-0.072.168,0.048,0.24-0.144.1,0.048,0.216-0.12.048,0.024,0.1-0.12.048-0.1.216,0.192,0.5-0.216.072,0.072-.168-0.12-.1-0.12-.192h0.048l0.1-.12-0.12-.24-0.1-.264,0.216-.048,0.144,0.12V51.949l-0.384-.048-0.024-.264-0.168-.24,0.408-.24,0.36,0.1,0.216,0.024,0.144,0.072Zm1.872-.288,0.168,0.12-0.024.168-0.168-.1ZM738,53.221l-0.24-.216,0.024-.408-0.12-.168h0.264l0.048-.048-0.072-.12v-0.12l0.1,0.072,0.072-.024-0.024-.288-0.144-.072-0.12.24-0.144-.024-0.024-.216,0.168-.144,0.336-.168L738.284,52l0.1,0.456,0.312-.312L738.5,52l-0.048-.12,0.288,0.192,0.024,0.432L739,52.789l-0.12.072-0.192.264-0.24.168-0.384.144Zm9.673-.984,0.144-.216-0.048.264-0.072.1Zm2.928,0.144v0.336l-0.12-.192-0.072-.192,0.12-.144Zm-15.145.144-0.048-.048,0.168-.072,0.216-.048-0.168.144Zm2.952,0.12-0.336-.144-0.12.024,0.192,0.24,0.288,0.192,0.072-.216Zm12.337,0.168v-0.24h0.192l0.072,0.168Zm-15.025.072-0.024-.12,0.24-.024,0.216,0.192,0.1,0.312-0.1.1Zm11.689,0.192,0.168-.264,0.192-.048,0.1,0.36Zm2.64,0.048-0.192.168,0.288-.36Zm-2.832.144-0.288.144-0.1-.12,0.216-.168,0.144-.048Zm-8.233-.12-0.1.12-0.1.048-0.024.072-0.024-.072,0.072-.168h0.168Zm8.689,0.768,0.024,0.144-0.072.12-0.1.024,0.1-.1-0.144-.312-0.048.024,0.024-.144V53.485l0.24,0.048-0.048.192Zm-9.049.288,0.1-.408,0.336-.288,0.192,0.144Zm8.113-.648v0.216l-0.168.024,0.024-.216Zm0.624,0.936h-0.1l-0.1-.072-0.024.072L747,54.661l-0.216.048-0.216.36H746.3l-0.024.264-0.24-.024-0.36.312-0.216-.336-0.024-.072-0.1.12,0.024,0.336-0.24.12-0.24.1-0.288.192-0.36.048-0.408-.12-0.1-.24-0.12.048-0.024.288-0.288.1-0.048-.192-0.432.1-0.312.048h-0.264l-0.336-.144,0.1-.1,0.048,0.144,0.312-.048v-0.12l-0.192-.072-0.312.072-0.336-.1-0.408-.072-0.216-.144,0.288-.12,0.432-.12,0.312,0.216,0.192-.072-0.12-.264-0.048.144h-0.192l-0.144-.144,0.024-.24,0.168,0.168,0.192,0.048L742.1,55l0.24-.024,0.312,0.048,0.84-.048,0.312,0.1,0.288-.168,0.072,0.1-0.048.24,0.12-.072,0.288-.024,0.12-.072,0.168-.336,0.384-.192,0.1,0.072,0.24-.216,0.24-.168,0.36-.1,0.048-.192,0.336,0.048,0.24-.1,0.216-.264,0.12-.048L747,53.8l0.168,0.36V54.4l0.12,0.024,0.192-.168V54.4ZM740.4,55.669l-0.168-.168-0.36-.168-0.216-.192-0.168-.192,0.072-.192h-0.408v-0.12l0.216-.072,0.192-.24-0.048.1h0.168l0.12-.192-0.408-.288V53.7H739.6l-0.048.144,0.048,0.144,0.192,0.048,0.072-.144,0.192,0.192,0.24,0.456,0.313,0.264,0.12-.048v0.168l0.24,0.1v0.192l-0.192.192Zm-1.9-1.776-0.1.144,0.024-.168,0.072-.1v0.12Zm11.041,0.216,0.048-.168h0.168v0.1l-0.144.12-0.1.072-0.048-.048Zm-13.057.288-0.216.24-0.288.1,0.168-.24,0.336-.12,0.072-.024-0.12-.168,0.024-.216,0.144,0.36,0.072,0.072h-0.192Zm10.273-.144-0.264.024,0.312,0.144,0.36-.024-0.24-.288ZM739,54.325l-0.048-.12,0.12-.024,0.072,0.1,0.144,0.1-0.072.072-0.12-.1Zm10.8,0.336-0.1.072,0.1,0.048v0.1l-0.144.048-0.144-.024,0.024-.12,0.12-.048,0.048-.192,0.144-.024Zm-10.1.312,0.12-.024,0.168-.144-0.144-.048Zm5.377,0.144,0.36,0.1-0.192-.192Zm3.744,0.12,0.072-.192h0.144l-0.072.144Zm-6.216.1,0.216,0.1V55.213l-0.216-.048v0.168Zm1.368-.1-0.216.1,0.12,0.192,0.216-.1-0.024-.168Zm-7.129.216H736.7l0.1-.168,0.144,0.072Zm-0.24.144,0.072-.12,0.072,0.1Zm8.113,0.168h0.168l0.12-.144-0.12-.072Zm4.344-.048-0.1.024-0.024-.168,0.12-.024v0.168Zm-12.121.024,0.288-.144,0.264,0.24-0.264-.072Zm11.689,0.528-0.264.144-0.144-.12,0.024-.456,0.072,0.048,0.192-.048,0.048,0.288,0.216-.12,0.024,0.1Zm-10.513-.1,0.1-.168,0.264,0.12-0.144-.024-0.144.072h-0.072Zm-0.624.144-0.072-.192,0.12,0.192,0.048,0.144Zm10.561,0.7-0.216-.048-0.1-.144-0.168.144-0.168-.12h-0.072l-0.024.192,0.144,0.072,0.048,0.264-0.216.264-0.336-.12-0.144.048,0.024-.336,0.384-.1-0.1-.24,0.144-.528,0.24-.192,0.336,0.024,0.024,0.408,0.072,0.288,0.24-.048Zm-0.48-.5,0.024,0.144,0.12-.144-0.24-.1Zm-9.385.168-0.048-.1,0.24,0.024,0.24,0.168-0.048.288-0.144-.024,0.048-.264Zm0.7,0.048,0.12-.072,0.12-.024,0.144,0.12-0.024.1-0.12-.168-0.192.168Zm0.672,0.192,0.072-.168V56.678l0.048,0.1,0.12,0.144-0.12.168Zm1.873,0.792-0.192-.024-0.336.144-0.192-.12,0.048,0.168-0.1.12v-0.36l-0.24-.216-0.265-.168v-0.12l0.168-.216-0.024.144-0.072.072,0.144,0.12,0.217-.072-0.024.072,0.168,0.168h0.1l0.1,0.144V57.71l0.192,0.024,0.024-.12,0.168-.048,0.12-.144,0.144,0.24Zm4.656-.672,0.24-.1,0.384,0.072,0.024,0.24-0.288.144-0.168.048,0.024-.24Zm-7.417.264-0.168-.024,0.072-.12,0.1,0.1,0.1,0.144Zm7.177,0.312-0.264.12-0.432-.264,0.072-.168,0.192,0.024,0.264,0.24,0.048-.336,0.24,0.048Zm-6.025,0-0.528-.024-0.192-.1,0.12-.12,0.144-.072,0.384,0.1,0.336-.024,0.024,0.048Zm5.161,0.792-0.408-.144-0.12-.024-0.24-.432,0.072-.168-0.024-.12,0.24-.12,0.288,0.12,0.384,0.264,0.072,0.432Zm-0.96-.264L744,58.334l-0.24.048-0.216-.048-0.24.1-0.192-.168,0.1-.144,0.264,0.048v-0.24l-0.336-.1,0.024,0.072-0.072-.048-0.072.072-0.048.168-0.1.048-0.216-.12-0.216-.048-0.312-.216L742.1,57.59l0.384,0.048,0.072-.12,0.288-.024,0.288,0.144,0.288,0.048,0.264-.192,0.168-.024,0.216,0.312Zm-0.264-.528-0.024.12,0.192-.024-0.024-.1-0.072-.1Zm2.4,0.264-0.168-.192,0.048-.1,0.192,0.12,0.12,0.216Zm0.36-.216-0.1-.024,0.192-.048h0.024l-0.048.024Zm-1.824.144,0.072,0.048,0.168-.1-0.144-.072Zm-3.84.408h-0.144l0.1-.12,0.1-.048Zm1.032,0.072,0.024-.048,0.12-.072,0.144-.024-0.024.168-0.192-.024h-0.072Zm0.5,0.168-0.1-.144h-0.072l0.072-.048h0.192l0.048,0.168Zm29.856-12.961-0.48-.864-0.312-.408-0.312-.336-0.264-.36-0.408-.36-0.72-.48-0.864-.456-0.5-.1L767.9,41.94l-0.432-.1-7.176-.024-0.648.216-0.24.456-0.048.5V43.98l-0.072.432v0.456l0.072,0.5v2.448l-0.048.48,0.048,0.432-0.048.528,0.072,0.984-0.1.648,0.072,0.72-0.048.456v1.008l0.072,0.456-0.072.96,0.072,1.512-0.12.48,0.1,0.456-0.072.456,0.024,0.456,0.192,0.5L760,58.55l0.48,0.048,1.416-.024,0.528,0.048h0.5l0.48-.264,0.216-.5,0.024-.96-0.048-.456,0.072-.432-0.048-.528v-0.5l0.168-.408,0.648-.24,0.528-.072,0.72,0.072,1.248-.024,0.984-.192,1.393-.408,0.816-.5,0.384-.288,0.72-.7,0.768-1.152,0.216-.432,0.168-.432,0.216-.984,0.048-.432,0.024-1.416Zm-9.793-3.384,0.168,0.048-0.168.072-0.168.048,0.1,0.072,0.168,0.024-0.024.144-0.1.048-0.144-.288Zm-2.064.024,0.024,0.168-0.144-.072-0.048-.1h0.168Zm0.432,0.1,0.192,0.12,0.024,0.168-0.144-.072-0.12-.168-0.1-.12Zm3.96-.072,0.1,0.12-0.144.048Zm1.44,0.048-0.024.12-0.12-.072-0.048-.072Zm-4.656.12-0.144.144,0.048-.144h0.1Zm2.76,0.024,0.024,0.048,0.144,0.072,0.168,0.168-0.168.144-0.12-.216-0.048-.168V42.348Zm-0.6.072,0.072,0.12,0.048,0.12-0.072-.1-0.144-.048-0.048-.12Zm-0.72.12,0.12-.072,0.144-.048,0.12,0.072-0.144.024-0.168.072-0.1.048Zm-2.28.48-0.12-.072,0.024-.072V42.588l0.048-.048,0.192,0.288,0.336,0.048,0.12,0.1,0.12-.048-0.024-.072,0.072,0.024V42.708l-0.1-.216V42.468l0.168,0.048,0.1,0.288-0.192.12-0.024.216-0.168.24-0.336-.024-0.1.168-0.312-.216-0.24-.24-0.168-.024,0.024-.12h0.192l0.192,0.192,0.312,0.048ZM760,42.492l0.168,0.144,0.144,0.048-0.048.1h-0.384l-0.048-.168ZM762,42.564l-0.048.144L761.9,42.66Zm1.944,0.264,0.072-.192,0.144-.048-0.048.12-0.1.12-0.072.1v-0.1Zm-1.464-.024-0.072.072-0.1-.192h0.1Zm1.248,0.144H763.6l0.024-.12,0.048-.072v0.072Zm-2.568.312,0.12-.168-0.264-.12-0.24.024,0.168,0.024Zm-0.624.6-0.024.192-0.144-.072-0.072-.216-0.12-.168-0.264-.048-0.024-.216,0.24-.048,0.144,0.24,0.048,0.168Zm-0.144-.408,0.12-.024,0.024,0.144-0.1-.024Zm9.769,7.1-0.6.792-0.72.576-0.432.264-0.529.192-0.7.144-4.632.12L762,52.909l-0.312.48,0.072,0.456-0.1,2.064,0.072,0.48-0.168.48-0.216.048-0.168-.48,0.048-1.968-0.072-.48,0.072-.48V49.093l-0.048-.5,0.048-1.7-0.048-.744,0.048-.984-0.048-.48,0.048-.48,0.24-.5,0.408-.192,4.392-.048,1.7,0.264,0.769,0.456,0.792,0.624,0.336,0.36,0.216,0.408,0.528,0.816,0.144,0.48,0.1,0.5-0.1,1.872Zm-9.841-6.337-0.192-.072V43.932L760.268,44Zm9.721,2.16-0.216-.48-0.336-.408-0.672-.624-0.384-.24-1.009-.48-0.48-.1-0.672-.072-3.768.048-0.48.168-0.288.5-0.048.5,0.048,0.432-0.024.5,0.048,0.48v0.912l-0.1.5,0.1,1.92-0.048.96,0.024,0.432,0.216,0.528,0.528,0.192,5.04-.12,0.937-.432,0.7-.6,0.336-.36,0.24-.384,0.432-.864,0.168-.528,0.048-.72-0.1-.744Zm-10.345-1.824,0.1-.12-0.024-.192,0.048-.168,0.024,0.192-0.048.192,0.024,0.144-0.048.12Zm0.384,0.288,0.144,0.072-0.024.12-0.12-.072v-0.12Zm7.44,0.192,0.1-.024-0.024.072-0.072.048v-0.1Zm-4.8.312-0.12-.1-0.024-.072,0.072,0.048,0.072,0.072,0.072,0.048h-0.072Zm-2.856.072L760,45.445l-0.072.168,0.1,0.144,0.072,0.072-0.12.024-0.048-.24-0.072-.168-0.072.024Zm8.377,3.768-0.553.672-0.384.264-0.384.216-1.968.12-0.552-.048L763.94,50.2l-0.288-.48L763.6,46.381l0.288-.528,0.48-.192,0.6-.048,1.92,0.1,0.408,0.216,0.36,0.264,0.384,0.36,0.241,0.408,0.216,1.128Zm-7.609-3.312,0.024-.144,0.024,0.1,0.024,0.12Zm-0.648.432v-0.1l0.072-.048,0.024,0.1Zm2.448,0.288V46.5l0.12-.024,0.024,0.12h-0.144Zm-2.208.336,0.072,0.1v0.144H760.22l0.048-.144-0.024-.048-0.1.072-0.1-.048,0.048-.072h0.12ZM772.1,47.941l-0.048.144-0.048-.144,0.144-.12Zm-12.049-.072,0.024,0.1,0.072,0.1v0.048l0.072,0.12-0.288-.144Zm11.713,0.408h-0.024l0.12-.12Zm-11.713.576-0.1.072V48.8l0.12-.048Zm9.145,0.312-0.1.072,0.072-.1,0.168,0.024H769.2Zm2.376,0.192-0.048-.144,0.168,0.024,0.024,0.1Zm-2.76.384-0.072-.072V49.6l0.072,0.024v0.12Zm-8.665.288v0.192l-0.12-.072L759.98,50.1l-0.024-.072h0.192Zm11.113,0.552-0.1-.048,0.024-.192,0.072-.12,0.024,0.144Zm-10.609-.048-0.1-.1-0.024-.048,0.048,0.048Zm7.224,0.192-0.1.072,0.048-.12H767.9Zm-3.672.288-0.12-.024,0.024-.072h0.1v0.1Zm2.616,0.048-0.144.024,0.024-.1,0.12,0.024,0.072,0.024Zm-6.72.1,0.12,0.144,0.1,0.168,0.048,0.1,0.12-.072,0.072,0.072-0.048.048h-0.12l-0.12-.144-0.1-.048-0.216-.024-0.048-.216Zm10.873,0.672-0.12.024,0.024-.12,0.1-.024v0.12Zm-10.153.1-0.024.1L760.7,52V51.925h0.12Zm9.553,0.216-0.144-.024,0.024-.144L770.4,52Zm-10.441.24,0.192-.312,0.288-.048-0.192.24,0.192,0.1V52.6l-0.336-.1-0.144.12-0.1-.1Zm8.521,0.96h-0.072l-0.024-.1-0.072-.048,0.072-.1,0.168,0.072Zm-8.545.1,0.024-.168,0.048-.12,0.12,0.144-0.072.192Zm0.72-.264,0.192,0.072-0.216.024-0.192-.048Zm4.3,0.144H764.8l0.048-.1,0.1-.024Zm0.432,0.192-0.072-.048,0.072-.216,0.12,0.1Zm2.064,0-0.12-.168-0.072-.048H767.3l0.168,0.072,0.144,0.072Zm-0.552.144-0.144.144-0.024.1-0.12-.048,0.1-.144,0.1-.072,0.048-.192,0.144,0.048Zm-0.624.072-0.1-.1V53.485l0.168,0.1Zm-1.968-.144-0.1.048,0.072-.072,0.072-.048Zm1.416,0.1-0.144-.024,0.1-.072,0.1,0.048ZM760,53.725l0.12-.048-0.024.12-0.144.024Zm2.16,0.048-0.072.024,0.072-.048,0.12,0.048,0.024,0.048Zm-1.8.36h-0.12V54.061l0.144-.048ZM763.1,54.3l-0.192.144,0.1-.264,0.24-.048Zm-2.544.336-0.072.264-0.12-.12V54.565Zm2.52,0.12L763,54.781V54.709l0.072-.048v0.1Zm-3.048,0,0.1-.024v0.1l-0.12.024Zm2.28,0.144-0.144-.048-0.024-.048h0.072l0.072,0.048,0.072-.024Zm-2.112.408-0.072-.168,0.1,0.024,0.072,0.12h0.168l-0.072.024H760.2Zm0.48,0.072-0.072.12,0.048-.12V55.333Zm1.872-.048,0.144,0.024-0.024.12-0.1-.024Zm-0.216.336-0.12-.048-0.024-.1h0.12Zm-2.448-.024,0.024-.072,0.1,0.072h-0.12Zm0.48,0.1,0.072,0.216-0.1-.048-0.072-.1Zm0.384,0.408L760.8,56.2l-0.072-.048L760.6,56.1l-0.1-.1,0.1,0.024,0.144-.12,0.12,0.024-0.1.048-0.072.072Zm1.608-.072,0.048-.144,0.024,0.072Zm-2.232.024,0.072-.048,0.072,0.072L760.2,56.1h-0.072ZM760.2,56.51l-0.072.024V56.39Zm2.88,0.648h-0.552l-0.192-.264-0.12-.072h-0.048l0.048-.048,0.168,0.1,0.168,0.048,0.24-.024,0.288,0.1v0.168Zm-0.936-.312,0.072,0.1V57.11l-0.168-.144Zm-2.016.24v-0.12l0.1,0.072-0.048.072Zm0.864-.072L761.2,57.3l-0.24.072-0.072-.216Zm-0.432.24,0.192-.072-0.024.168-0.288.024-0.1-.168Zm0.936,0.192-0.048-.024,0.024-.1,0.024,0.1v0.024Zm1.2,0.48-0.48.12-0.408-.432-0.264-.144,0.168-.1,0.264,0.1,0.264,0.384,0.12-.216-0.216-.168,0.144-.12,0.168,0.12,0.048,0.12,0.24,0.024Zm-2.472-.312,0.072-.024,0.192,0.048,0.12,0.12-0.144-.048-0.144-.072Zm1.344,0.456-0.024.1-0.048-.1-0.264.12-0.384-.12,0.024-.144-0.024-.1-0.048.048h-0.1l-0.024-.1,0.072,0.048,0.048-.072,0.072,0.024,0.216,0.144,0.12-.1-0.072-.12,0.1-.024,0.12,0.12,0.072,0.048,0.192-.072-0.072.1Zm0.84-.24,0.048,0.1,0.024-.144-0.048-.072Zm-1.9.168-0.048-.1,0.1,0.024L760.6,58h-0.1Z" transform="translate(-592.625 -41.5)"/>
</svg>
